<svg width="64" height="64" viewBox="0 0 64 64" fill="none" xmlns="http://www.w3.org/2000/svg">
<circle cx="32" cy="32.001" r="31.5" transform="rotate(-180 32 32.001)" fill="#F2F4F7" stroke="#E4E7EC"/>
<path d="M27.3686 41.5269L26.452 40.5643C26.1507 40.2307 26 39.8411 26 39.3964C26 38.9425 26.1507 38.5575 26.452 38.2409L32.3912 32.002L26.4522 25.7632C26.1509 25.4466 26.0002 25.0615 26.0002 24.6078C26.0002 24.1628 26.1509 23.7733 26.4522 23.4397L27.3688 22.4897C27.6782 22.1645 28.049 22.002 28.4808 22.002C28.9207 22.002 29.2873 22.1647 29.5805 22.4897L37.5357 30.8466C37.8451 31.1548 38 31.5397 38 32.002C38 32.4555 37.8452 32.845 37.5357 33.1699L29.5805 41.5268C29.279 41.8435 28.9125 42.002 28.4808 42.002C28.0571 42.002 27.6865 41.8436 27.3686 41.5269Z" fill="#101828"/>
</svg>
