<svg width="64" height="64" viewBox="0 0 64 64" fill="none" xmlns="http://www.w3.org/2000/svg">
<circle cx="32" cy="32" r="32" fill="#101828"/>
<path d="M29.2546 22.4276L28.4144 23.2939C28.1381 23.5941 28 23.9448 28 24.345C28 24.7535 28.1381 25.1 28.4144 25.385L33.8586 31L28.4145 36.6149C28.1383 36.8999 28.0002 37.2464 28.0002 37.6548C28.0002 38.0552 28.1383 38.4058 28.4145 38.706L29.2547 39.561C29.5384 39.8537 29.8783 40 30.2741 40C30.6773 40 31.0133 39.8536 31.2821 39.561L38.5744 32.0399C38.8581 31.7625 39 31.416 39 31C39 30.5918 38.8581 30.2413 38.5744 29.9488L31.2821 22.4276C31.0058 22.1426 30.6698 22 30.2741 22C29.8856 22 29.5459 22.1426 29.2546 22.4276Z" fill="white"/>
</svg>
