<svg width="64" height="64" viewBox="0 0 64 64" fill="none" xmlns="http://www.w3.org/2000/svg">
<circle cx="32" cy="32.001" r="31.5" fill="#F2F4F7" stroke="#E4E7EC"/>
<path d="M36.6314 22.4751L37.548 23.4377C37.8493 23.7712 38 24.1608 38 24.6056C38 25.0595 37.8493 25.4444 37.548 25.7611L31.6088 32L37.5478 38.2388C37.8491 38.5554 37.9998 38.9405 37.9998 39.3942C37.9998 39.8391 37.8491 40.2286 37.5478 40.5622L36.6312 41.5122C36.3218 41.8375 35.951 42 35.5192 42C35.0793 42 34.7127 41.8373 34.4195 41.5123L26.4643 33.1554C26.1549 32.8472 26 32.4623 26 32C26 31.5464 26.1548 31.157 26.4643 30.832L34.4195 22.4751C34.721 22.1584 35.0875 22 35.5192 22C35.9429 22 36.3135 22.1584 36.6314 22.4751Z" fill="#101828"/>
</svg>
