<svg width="64" height="64" viewBox="0 0 64 64" fill="none" xmlns="http://www.w3.org/2000/svg">
<circle cx="32" cy="32" r="32" transform="rotate(-180 32 32)" fill="#101828"/>
<path d="M34.7454 41.5724L35.5856 40.7061C35.8619 40.4059 36 40.0552 36 39.655C36 39.2465 35.8619 38.9 35.5856 38.615L30.1414 33L35.5855 27.3851C35.8617 27.1001 35.9998 26.7536 35.9998 26.3452C35.9998 25.9448 35.8617 25.5942 35.5855 25.294L34.7453 24.439C34.4616 24.1463 34.1217 24 33.7259 24C33.3227 24 32.9867 24.1464 32.7179 24.439L25.4256 31.9601C25.1419 32.2375 25 32.584 25 33C25 33.4082 25.1419 33.7587 25.4256 34.0512L32.7179 41.5724C32.9942 41.8574 33.3302 42 33.7259 42C34.1144 42 34.4541 41.8574 34.7454 41.5724Z" fill="white"/>
</svg>
