<svg width="380" height="114" viewBox="0 0 380 114" fill="none" xmlns="http://www.w3.org/2000/svg">
<g clip-path="url(#clip0_360_3290)">
<path fill-rule="evenodd" clip-rule="evenodd" d="M77.0208 21.0737C73.935 17.9924 68.9383 17.998 65.8586 21.0823C62.7743 24.162 62.771 29.161 65.8524 32.247L71.4316 37.8262L77.0148 32.243C80.099 29.1633 80.1022 24.1642 77.0208 21.0737ZM62.1233 35.9712L47.2501 21.098C44.1642 18.0166 39.1651 18.0199 36.0854 21.1042C32.9988 24.1817 32.9956 29.1806 36.0747 32.2688L50.9502 47.1443C54.0362 50.2257 59.0352 50.2226 62.115 47.1383C65.2015 44.0563 65.2047 39.0572 62.1233 35.9712Z" fill="#C3C9CB"/>
<path fill-rule="evenodd" clip-rule="evenodd" d="M91.8682 76.8866C94.9525 73.8069 94.9559 68.808 91.8744 65.722C88.7887 62.6408 83.7895 62.644 80.7099 65.7282L75.122 71.316L80.7012 76.8952C83.7874 79.9765 88.7862 79.9732 91.8682 76.8866ZM76.9926 62.0109L91.89 47.1135C94.972 44.036 94.9777 39.0393 91.8985 35.9511C88.8128 32.8699 83.8137 32.873 80.7339 35.9573L65.8364 50.8548C62.7499 53.9323 62.7467 58.9313 65.8255 62.0196C68.9117 65.1008 73.9105 65.0975 76.9926 62.0109Z" fill="#DDE1E2"/>
<path fill-rule="evenodd" clip-rule="evenodd" d="M36.0331 91.8166C39.119 94.8981 44.1182 94.8947 47.1978 91.8103C50.2821 88.7308 50.2855 83.7316 47.204 80.6457L41.6248 75.0665L36.0394 80.6519C32.9574 83.7294 32.9543 88.7284 36.0331 91.8166ZM50.9328 76.9169L65.8085 91.7925C68.8946 94.8738 73.8935 94.8704 76.9733 91.7861C80.0598 88.7086 80.0632 83.7098 76.984 80.6216L62.1083 65.7459C59.0225 62.6646 54.0235 62.6678 50.9437 65.7521C47.8572 68.8341 47.8518 73.8309 50.9328 76.9169Z" fill="#C3C9CB"/>
<path fill-rule="evenodd" clip-rule="evenodd" d="M21.188 36.0015C18.1037 39.0812 18.1005 44.0802 21.1819 47.1661C24.2677 50.2474 29.2667 50.2442 32.3465 47.1599L37.9319 41.5745L32.3527 35.9953C29.2668 32.9139 24.2678 32.9171 21.188 36.0015ZM36.0637 50.8771L21.1661 65.7746C18.0795 68.8521 18.0764 73.8511 21.1554 76.9391C24.2413 80.0205 29.2403 80.0174 32.3199 76.9329L47.2152 62.0377C50.3019 58.9603 50.3051 53.9613 47.2261 50.8733C44.1401 47.7873 39.1434 47.7928 36.0637 50.8771Z" fill="#DDE1E2"/>
</g>
<path d="M123.757 69.0933C126.177 69.0933 127.567 68.2264 127.929 66.4926C127.965 66.2397 127.983 66.005 127.983 65.7882C127.983 63.9461 126.827 62.4109 124.515 61.1828C124.01 60.8939 123.197 60.5146 122.077 60.045C119.368 58.853 117.58 57.7514 116.713 56.74C115.774 55.6564 115.304 54.3741 115.304 52.8931C115.304 49.8229 116.984 47.7459 120.343 46.6623C121.752 46.1927 123.323 45.9579 125.057 45.9579C127.874 45.9579 130.078 46.4636 131.667 47.475C131.667 46.3914 131.992 45.7954 132.642 45.687C132.787 45.6509 132.931 45.6329 133.076 45.6329V52.4055H131.342C131.198 49.1185 129.41 47.4569 125.978 47.4208C123.666 47.4208 122.24 48.1794 121.698 49.6964C121.589 50.0576 121.535 50.4189 121.535 50.7801C121.535 52.3333 122.619 53.6517 124.786 54.7353C125.22 54.9881 125.942 55.3313 126.953 55.7647C129.771 57.0289 131.649 58.1848 132.588 59.2323C133.672 60.4604 134.214 61.9233 134.214 63.621C134.214 66.7635 132.588 68.8766 129.337 69.9602C128.001 70.3936 126.502 70.6104 124.84 70.6104C121.662 70.6104 118.989 70.0505 116.822 68.9307C116.822 69.8699 116.587 70.4117 116.117 70.5562C115.9 70.5923 115.648 70.6104 115.359 70.6104V62.3748H117.201C117.273 66.8177 119.458 69.0572 123.757 69.0933ZM136.617 48.4503H140.356V61.9956C140.356 67.2331 142.523 70.1047 146.857 70.6104C147.291 70.6465 147.724 70.6645 148.158 70.6645C150.939 70.6645 152.853 69.7615 153.901 67.9555C154.407 67.0525 154.804 65.8605 155.093 64.3795L153.63 64.1628C152.908 67.0886 151.842 68.696 150.433 68.9849C150.217 69.021 150 69.0391 149.783 69.0391C148.447 69.0391 147.634 68.1 147.345 66.2217C147.273 65.7882 147.237 65.3367 147.237 64.8672V48.4503H154.389V47.0416H147.237V40.7565L140.356 41.8944V47.0416H136.617V48.4503ZM176.351 70.6104C178.988 70.6104 180.632 69.6532 181.282 67.7388C181.499 67.0163 181.661 66.0953 181.77 64.9755L180.361 64.9213C180.144 67.4137 179.512 68.6779 178.464 68.714C177.67 68.6418 177.273 67.7388 177.273 66.005V54.6811C177.273 50.166 175.177 47.3847 170.987 46.3372C169.904 46.0844 168.73 45.9579 167.466 45.9579C162.553 45.9579 159.465 47.0235 158.201 49.1546C157.876 49.6964 157.713 50.2744 157.713 50.8884C157.713 52.2971 158.381 53.1821 159.718 53.5433C160.043 53.6517 160.386 53.7058 160.747 53.7058C162.3 53.7058 163.348 52.9473 163.89 51.4302C163.962 51.2135 164.07 50.8523 164.215 50.3466C164.612 48.9018 165.118 47.9988 165.732 47.6376C166.129 47.4569 166.581 47.3666 167.086 47.3666C168.784 47.3666 169.814 48.3961 170.175 50.455C170.319 51.2135 170.391 52.1165 170.391 53.164V56.6858C161.108 56.8664 156.449 59.3226 156.413 64.0544C156.413 67.2692 157.821 69.3281 160.639 70.2311C161.47 70.4839 162.391 70.6104 163.402 70.6104C166.472 70.6104 168.73 69.4545 170.175 67.1428C170.464 66.6732 170.699 66.1856 170.879 65.6799C171.638 68.7863 173.462 70.4298 176.351 70.6104ZM166.22 68.2806C164.414 68.2083 163.492 66.6009 163.456 63.4584C163.456 61.0745 164.432 59.5213 166.382 58.7989C167.43 58.4738 168.766 58.2751 170.391 58.2029V63.4584C169.705 65.9869 168.604 67.5401 167.086 68.118C166.761 68.2264 166.472 68.2806 166.22 68.2806ZM183.631 58.3654C183.631 63.639 185.636 67.2692 189.645 69.2558C191.524 70.1588 193.673 70.6104 196.093 70.6104C199.849 70.6104 202.739 69.4725 204.762 67.1969C205.448 66.4023 205.972 65.5354 206.333 64.5962L204.924 64.217C203.913 66.3842 202.197 67.8471 199.777 68.6057C198.838 68.8946 197.899 69.0391 196.96 69.0391C194.467 69.0391 192.806 67.9194 191.975 65.6799C191.361 64.0183 191.054 61.6705 191.054 58.6363C191.054 52.568 192.011 48.956 193.926 47.8001C194.504 47.475 195.19 47.3125 195.985 47.3125C197.574 47.3125 198.549 48.0529 198.91 49.5339C198.983 49.8229 199.073 50.3105 199.181 50.9968C199.398 52.6583 199.831 53.7239 200.482 54.1935C200.987 54.5547 201.674 54.7353 202.54 54.7353C204.383 54.7353 205.52 54.049 205.954 52.6764C206.026 52.3874 206.062 52.0985 206.062 51.8095C206.062 50.2202 205.105 48.8295 203.191 47.6376C201.312 46.5178 198.964 45.9579 196.147 45.9579C192.318 45.9579 189.212 47.2041 186.828 49.6964C184.697 51.9359 183.631 54.8256 183.631 58.3654ZM221.198 68.6598H218.381V60.3159L220.06 58.6905L226.671 70.1227L235.665 70.0685C235.665 69.2739 235.448 68.8224 235.014 68.714C234.834 68.6779 234.617 68.6598 234.364 68.6598H233.552L224.828 54.0851L228.838 50.2382C230.102 49.0463 231.077 48.378 231.764 48.2335C232.053 48.1974 232.341 48.1794 232.63 48.1794C233.425 48.1794 233.877 47.8904 233.985 47.3125C234.021 47.1319 234.039 46.9513 234.039 46.7707H224.883V48.1794H228.838L218.381 58.0945V34.8508H207.382V36.2595H211.5V65.8424C211.428 67.7207 210.055 68.6598 207.382 68.6598V70.0685H222.499C222.499 69.2378 222.264 68.7863 221.794 68.714C221.614 68.6779 221.415 68.6598 221.198 68.6598ZM248.85 47.3666C251.162 47.4389 252.336 49.4075 252.372 53.2724C252.372 54.9701 251.866 56.0176 250.855 56.4149C250.132 56.6677 249.049 56.758 247.604 56.6858L244.136 56.5233C244.389 50.5272 245.96 47.475 248.85 47.3666ZM258.982 64.4879L257.682 64.0544C256.67 66.2578 255.081 67.7568 252.914 68.5515C252.047 68.8766 251.162 69.0391 250.259 69.0391C247.369 69.0391 245.509 67.1969 244.678 63.5126C244.353 61.9956 244.172 60.1895 244.136 58.0945L249.121 58.2571C254.936 58.4377 258.314 57.5166 259.253 55.4938C259.47 54.9881 259.578 54.4283 259.578 53.8142C259.578 50.7439 258.007 48.5045 254.864 47.0957C253.094 46.3372 251.09 45.9579 248.85 45.9579C244.768 45.9579 241.59 47.3486 239.314 50.1299C237.58 52.2971 236.714 54.9881 236.714 58.2029C236.714 63.4404 238.682 67.0886 242.619 69.1475C244.498 70.1227 246.629 70.6104 249.013 70.6104C253.239 70.6104 256.273 69.1294 258.115 66.1675C258.476 65.6257 258.765 65.0658 258.982 64.4879ZM275.96 68.6598H271.951V56.9567C272.204 53.164 273.125 50.8523 274.714 50.0215C274.967 49.9132 275.202 49.859 275.418 49.859C275.816 49.859 276.249 50.2744 276.719 51.1051C277.369 52.261 278.073 52.9834 278.832 53.2724C279.193 53.3808 279.59 53.4349 280.024 53.4349C281.469 53.4349 282.498 52.7486 283.112 51.3761C283.329 50.9065 283.437 50.4189 283.437 49.9132C283.437 48.1071 282.552 46.9693 280.782 46.4997C280.349 46.3914 279.897 46.3372 279.428 46.3372C277.188 46.3372 275.22 47.2222 273.522 48.9921C272.764 49.859 272.186 50.7981 271.788 51.8095L271.409 46.7707H261.927V48.1794H265.07V65.8424C265.07 67.4317 264.438 68.3347 263.173 68.5515C262.812 68.6237 262.397 68.6598 261.927 68.6598V70.0685H277.261C277.261 69.2378 277.026 68.7863 276.556 68.714C276.376 68.6779 276.177 68.6598 275.96 68.6598Z" fill="#C3C9CB"/>
<defs>
<clipPath id="clip0_360_3290">
<rect width="80" height="80" fill="white" transform="translate(56.5684) rotate(45)"/>
</clipPath>
</defs>
</svg>
