<svg width="381" height="97" viewBox="0 0 381 97" fill="none" xmlns="http://www.w3.org/2000/svg">
<g clip-path="url(#clip0_360_3218)">
<path d="M30.2004 50C30.1004 50 30.0004 50 29.9004 49.9C30.0004 49.9 30.1004 50 30.2004 50Z" fill="#DDE1E2"/>
<path d="M65.8003 33.8001C62.3003 27.7001 56.9003 22.9001 50.4003 20.0001C48.1003 19.0001 45.7003 18.2001 43.3003 17.7001C43.5003 17.8001 43.7003 18.0001 44.0003 18.2001C44.2003 18.3001 44.4003 18.5001 44.6003 18.6001C44.9003 18.8001 45.2003 19.0001 45.5003 19.3001C45.5003 19.3001 45.5003 19.3001 45.6003 19.3001C45.8003 19.4001 45.9003 19.6001 46.1003 19.7001L46.2003 19.8001C46.4003 20.0001 46.6003 20.1001 46.8003 20.3001C47.4003 20.8001 48.1003 21.4001 48.7003 22.0001C49.3003 22.6001 49.9003 23.2001 50.4003 23.9001C50.6003 24.1001 50.7003 24.3001 50.9003 24.5001C50.9003 24.5001 50.9003 24.6001 51.0003 24.6001C51.1003 24.8001 51.3003 24.9001 51.4003 25.1001C51.5003 25.2001 51.5003 25.3001 51.6003 25.3001C51.7003 25.5001 51.9003 25.7001 52.0003 25.9001C52.1003 26.1001 52.3003 26.3001 52.4003 26.5001C52.4003 26.6001 52.5003 26.6001 52.5003 26.7001C52.6003 26.9001 52.8003 27.1001 52.9003 27.3001L53.0003 27.7001C53.0003 27.6001 53.0003 27.4001 52.9003 27.3001C53.1003 27.6001 53.2003 27.8001 53.4003 28.1001C53.6003 28.4001 53.7003 28.6001 53.9003 28.9001C54.0003 29.1001 54.2003 29.3001 54.3003 29.6001C54.3003 29.6001 54.3003 29.6001 54.3003 29.7001C54.4003 29.9001 54.5003 30.0001 54.5003 30.2001C54.6003 30.4001 54.7003 30.7001 54.9003 30.9001C55.0003 31.2001 55.2003 31.4001 55.3003 31.7001C55.3003 31.8001 55.4003 31.8001 55.4003 31.9001C55.5003 32.1001 55.6003 32.3001 55.7003 32.5001C55.9003 33.0001 56.2003 33.6001 56.4003 34.1001C58.9003 40.7001 59.3003 48.0001 57.5003 54.8001C56.3003 59.5001 54.0003 63.9001 50.8003 67.8001C51.8003 67.9001 52.8003 67.9001 53.9003 67.9001C58.8003 67.9001 63.5003 66.8001 67.7003 64.9001C69.6003 60.7001 70.7003 56.0001 70.7003 51.1001C70.7003 50.1001 70.7003 49.0001 70.6003 48.0001C69.8003 42.7001 68.2003 38.0001 65.8003 33.8001Z" fill="#DDE1E2"/>
<path d="M7.40029 33.8C10.9003 39.9 16.3003 44.7 22.8003 47.6C23.1003 47.7 23.4003 47.9 23.7003 48C23.9003 48.1 24.1003 48.2001 24.3003 48.2001C24.6003 48.3001 24.8003 48.4 25.1003 48.5C25.2003 48.5 25.4003 48.6 25.5003 48.6C25.7003 48.7 25.9003 48.7 26.1003 48.8H26.2003C26.4003 48.9 26.7003 49 27.0003 49C27.1003 49 27.1003 49 27.2003 49.1C27.5003 49.2 27.7003 49.3 28.0003 49.3C28.2003 49.3 28.3003 49.4001 28.5003 49.4001C28.7003 49.4001 28.8003 49.5 29.0003 49.5C29.3003 49.6 29.6003 49.6001 29.9003 49.7001C28.1003 48.5001 26.3003 47.1 24.7003 45.5C23.1003 43.9 21.7003 42.1 20.4003 40.3C19.0003 38.2 17.8003 35.9 17.0003 33.6C14.5003 27 14.1003 19.7 15.9003 12.9C17.1003 8.20005 19.4003 3.80005 22.6003 -0.0999512C21.6003 -0.199951 20.6003 -0.199951 19.5003 -0.199951C14.7003 4.88311e-05 10.0003 1.10005 5.80029 3.00005C3.90029 7.20005 2.80029 11.9 2.80029 16.8C2.80029 17.8 2.80029 18.9 2.90029 19.9C3.40029 24.9 5.00029 29.6 7.40029 33.8Z" fill="#DDE1E2"/>
<path d="M24.7004 21.9C26.3004 20.3 28.1004 18.9 29.9004 17.6C32.0004 16.2 34.3004 15 36.6004 14.2C43.2004 11.7 50.5004 11.3 57.3004 13.1C62.0004 14.3 66.4004 16.6 70.3004 19.8C70.4004 18.8 70.4004 17.8 70.4004 16.7C70.4004 11.8 69.3004 7.10002 67.4004 2.90002C63.2004 1.00002 58.5004 -0.0999756 53.6004 -0.0999756C52.6004 -0.0999756 51.6004 -0.0999756 50.5004 2.44156e-05C45.4004 0.400024 40.7004 2.00002 36.6004 4.40002C30.5004 8.10002 25.6004 13.5 22.7004 20C21.7004 22.3 20.9004 24.7 20.4004 27.2C21.7004 25.3 23.1004 23.5 24.7004 21.9Z" fill="#C3C9CB"/>
<path d="M51.2003 45.8C51.3003 45.6 51.4003 45.3 51.5003 45.1C51.5003 45.1 51.5003 45.1 51.5003 45V44.9C51.6003 44.7 51.7003 44.5 51.7003 44.3C51.8003 44 51.9003 43.8 51.9003 43.5C51.9003 43.4 52.0003 43.2 52.0003 43.1V43C52.1003 42.8 52.1003 42.6 52.2003 42.4C52.3003 42.1 52.3003 41.8 52.4003 41.5V41.4C52.5003 41.1 52.5003 40.8 52.6003 40.5C52.6003 40.5 52.6003 40.5 52.6003 40.6C52.5003 40.8 52.3003 41 52.2003 41.2C52.0003 41.4 51.9003 41.6 51.7003 41.9C51.6003 42.1 51.4003 42.3 51.3003 42.4C51.1003 42.6 51.0003 42.8 50.8003 43C50.7003 43.1 50.6003 43.3 50.5003 43.4C50.4003 43.5 50.3003 43.6 50.2003 43.7C49.7003 44.3 49.1003 45 48.5003 45.6C47.9003 46.2 47.3003 46.8 46.6003 47.3C46.5003 47.4 46.4003 47.5 46.3003 47.5C46.2003 47.6 46.1003 47.7 46.0003 47.7C46.0003 47.7 45.9003 47.7 45.9003 47.8C45.7003 47.9 45.6003 48.1 45.4003 48.2C45.4003 48.2 45.4003 48.2 45.3003 48.2C45.2003 48.3 45.0003 48.4 44.9003 48.5C44.8003 48.6 44.6003 48.7 44.5003 48.8C44.3003 48.9 44.1003 49.1 43.9003 49.2C43.7003 49.3 43.5003 49.5 43.3003 49.6C43.3003 49.6 43.3003 49.6 43.2003 49.6C43.0003 49.7 42.8003 49.9 42.5003 50C42.4003 50.1 42.3003 50.1 42.2003 50.2C42.2003 50.2 42.1003 50.2 42.1003 50.3C42.0003 50.4 41.8003 50.5 41.7003 50.6C41.6003 50.6 41.6003 50.7 41.5003 50.7C41.2003 50.8 41.0003 51 40.7003 51.1C40.5003 51.2 40.3003 51.3 40.0003 51.5H39.9003C39.7003 51.6 39.6003 51.7 39.4003 51.7C39.4003 51.7 39.4003 51.7 39.3003 51.7C39.1003 51.8 38.9003 51.9 38.8003 52C38.6003 52.1 38.3003 52.2 38.1003 52.3C37.9003 52.4 37.7003 52.5 37.5003 52.6C37.3003 52.7 37.1003 52.7 37.0003 52.8C36.8003 52.9 36.6003 53 36.4003 53C29.8003 55.5 22.5003 55.9 15.7003 54.1C11.3003 53.2 6.80029 51 2.90029 47.7C2.80029 48.7 2.80029 49.7 2.80029 50.8C2.80029 55.7 3.90029 60.4 5.80029 64.6C10.0003 66.5 14.7003 67.6 19.6003 67.6C20.6003 67.6 21.7003 67.6 22.7003 67.5C27.7003 67 32.5003 65.5 36.6003 63.1C42.7003 59.6 47.5003 54.2 50.4003 47.7C50.5003 47.4 50.7003 47.1 50.8003 46.8C51.0003 46.4 51.1003 46.1 51.2003 45.8Z" fill="#C3C9CB"/>
</g>
<path d="M123.96 29.6331C123.96 27.2753 125.654 26.0964 129.041 26.0964C129.82 26.0964 130.575 26.394 131.308 26.9892C132.04 27.5844 132.406 28.4084 132.406 29.4614C132.406 30.5144 132.075 31.9107 131.411 33.6505C130.747 35.3902 130.335 37.0383 130.175 38.5949C130.014 40.1515 129.66 45.5538 129.11 54.8017C128.561 64.0496 128.206 69.017 128.046 69.7037C127.725 71.0772 127.05 71.7639 126.02 71.7639C123.983 71.7639 121.922 70.4248 119.839 67.7465C119.359 67.1285 116.211 62.0581 110.397 52.5355C104.605 42.99 101.206 38.2172 100.199 38.2172L99.7525 38.4919C99.5694 38.7666 99.4092 39.4533 99.2718 40.5521C98.5393 46.8242 98.1731 53.6114 98.1731 60.9136C98.1731 61.6919 98.2188 62.5388 98.3104 63.4545L98.4477 64.6219C98.5851 65.7665 98.6538 66.4761 98.6538 66.7508C98.6538 68.3302 98.1158 69.6007 97.0399 70.5621C95.987 71.5235 94.7509 72.0042 93.3316 72.0042H92.1642C90.722 72.0042 90.001 71.4663 90.001 70.3904C90.001 69.2917 90.31 68.067 90.9281 66.7164C91.5461 65.3659 91.9582 63.8322 92.1642 62.1154C93.1485 53.8517 93.6406 44.9815 93.6406 35.5046C93.6406 33.8794 93.5262 32.5288 93.2973 31.4529L92.9883 30.2855L92.6449 29.2211C92.4618 28.5801 92.3702 27.9506 92.3702 27.3326C92.3702 26.4856 93.1828 26.0621 94.8081 26.0621C97.9213 26.0621 100.703 27.4356 103.152 30.1825C105.624 32.9065 109.344 38.2973 114.311 46.3549C119.279 54.4126 121.957 58.4414 122.346 58.4414L122.827 58.304C122.964 58.098 123.101 57.3655 123.239 56.1065C124.086 48.1633 124.509 41.193 124.509 35.1956C124.509 34.6691 124.452 33.8679 124.337 32.7921L124.2 31.6933C124.04 30.5716 123.96 29.8849 123.96 29.6331ZM145.342 52.1235V52.6728C145.342 53.3596 145.971 53.7029 147.23 53.7029H148.054L148.26 53.6686L149.943 53.5312C151.705 53.2794 152.85 53.1535 153.376 53.1535C155.872 53.1535 157.749 52.6843 159.008 51.7458C159.603 51.2879 159.9 50.4753 159.9 49.3079V48.9302C159.9 47.2133 159.328 45.8513 158.184 44.8441C157.062 43.8369 155.711 43.3333 154.132 43.3333H153.891L153.685 43.3677C151.465 43.3677 149.519 44.3062 147.848 46.1833C146.177 48.0603 145.342 50.0404 145.342 52.1235ZM152.827 73.4464H152.072C147.699 73.4464 144.22 72.0615 141.633 69.2917C139.047 66.499 137.753 62.7792 137.753 58.1323V56.6215C137.753 54.4011 138.188 52.1463 139.058 49.8573C140.821 45.2791 143.694 42.1201 147.677 40.3804C149.783 39.4419 151.923 38.9726 154.097 38.9726H155.574C158.573 38.9726 161.102 39.9798 163.162 41.9942C165.245 43.9857 166.287 46.561 166.287 49.7199V50.4066C166.287 52.6499 165.394 54.2409 163.609 55.1794C162.373 55.8432 159.488 56.5071 154.956 57.1709C150.423 57.8347 147.951 58.2353 147.539 58.3727C146.166 58.8534 145.479 59.769 145.479 61.1196C145.479 62.9967 146.28 64.599 147.883 65.9267C149.485 67.2544 151.637 67.9182 154.338 67.9182C155.597 67.9182 157.314 67.5748 159.488 66.8881C161.663 66.2014 162.922 65.858 163.265 65.858C164.433 65.858 165.016 66.3616 165.016 67.3688C165.016 68.7194 163.7 70.07 161.068 71.4205C158.435 72.7711 155.688 73.4464 152.827 73.4464ZM176.132 53.8403C174.735 52.421 174.037 50.4295 174.037 47.8657C174.037 45.302 175.182 43.1044 177.471 41.2731C179.76 39.419 182.599 38.4919 185.986 38.4919H186.879C189.878 38.4919 192.259 38.9154 194.021 39.7623C195.807 40.6093 196.699 41.8798 196.699 43.5737C196.699 45.2447 195.955 46.0802 194.467 46.0802C194.078 46.0802 192.98 45.6224 191.171 44.7068C189.363 43.7683 187.657 43.299 186.055 43.299C184.453 43.299 183.159 43.6653 182.175 44.3978C181.214 45.1074 180.733 46.0917 180.733 47.3507C180.733 48.6097 181.408 49.7085 182.759 50.647C183.537 51.1964 185.368 52.0662 188.253 53.2566C191.16 54.4469 193.231 55.5914 194.467 56.6902C196.459 58.4528 197.455 60.7076 197.455 63.4545C197.455 66.2014 196.287 68.5592 193.952 70.5278C191.618 72.4735 188.585 73.4464 184.853 73.4464H183.961C180.206 73.4464 177.391 72.9084 175.514 71.8326C173.637 70.7338 172.698 69.3146 172.698 67.5748C172.698 65.8122 173.431 64.9309 174.896 64.9309C175.376 64.9309 176.624 65.549 178.638 66.7851C180.676 68.0212 182.667 68.6393 184.613 68.6393C186.582 68.6393 188.058 68.2272 189.042 67.4032C190.027 66.5562 190.519 65.5032 190.519 64.2442C190.519 62.9623 189.901 61.8407 188.665 60.8792C188.001 60.3528 186.101 59.4028 182.965 58.0293C179.829 56.633 177.551 55.2366 176.132 53.8403ZM222.717 69.326C222.717 70.2416 222.156 71.0657 221.034 71.7982C219.935 72.5078 218.436 72.8627 216.536 72.8627C212.988 72.8627 210.493 71.5464 209.051 68.914C208.158 67.2658 207.712 63.4087 207.712 57.3426C207.712 51.2765 207.609 47.7513 207.403 46.767C207.197 45.7827 206.624 44.8212 205.686 43.8827C204.747 42.9442 204.278 42.2231 204.278 41.7195C204.278 41.5364 205.388 40.3346 207.609 38.1142C208.089 37.6335 208.57 36.5691 209.051 34.9209C209.554 33.2728 209.909 32.1854 210.115 31.6589C210.802 30.0108 211.706 29.1867 212.828 29.1867H213.377C214.362 29.1867 215.06 29.5644 215.472 30.3198C215.632 30.6174 215.872 31.6933 216.193 33.5475C216.536 35.3787 216.925 36.5576 217.36 37.0841C217.795 37.6106 218.883 38.1943 220.622 38.8353C222.385 39.4533 223.266 40.1172 223.266 40.8268V41.2045C223.266 42.1201 222.259 42.8984 220.245 43.5394C218.253 44.1574 216.971 45.1532 216.399 46.5266C215.277 49.2964 214.716 53.8059 214.716 60.0552C214.716 62.9852 215.22 64.9767 216.227 66.0297C216.845 66.6707 218.081 67.117 219.935 67.3688C221.79 67.6206 222.717 68.273 222.717 69.326ZM235.068 34.4059L234.485 28.2596C234.485 27.7789 234.794 27.2982 235.412 26.8175C236.03 26.3139 236.945 26.0621 238.159 26.0621C240.928 26.0621 243.16 27.3326 244.854 29.8735C246.571 32.4143 249.226 38.1829 252.82 47.179C254.377 50.9789 255.292 53.1307 255.567 53.6343L256.322 54.63C256.826 54.63 259.069 50.8988 263.052 43.4363C267.035 35.951 269.519 31.5216 270.503 30.1481C272.472 27.4012 274.979 26.0278 278.023 26.0278C280.175 26.0278 281.251 26.8175 281.251 28.397L281.045 29.5301L280.736 30.9035C280.484 32.2999 280.312 35.4131 280.221 40.2431C280.129 45.0502 279.992 49.8801 279.809 54.733L279.637 60.1582C279.637 62.4702 279.763 64.0954 280.015 65.034L280.495 66.3731C280.953 67.6092 281.182 68.5363 281.182 69.1543C281.182 69.7495 280.85 70.3103 280.186 70.8368C279.522 71.3633 278.779 71.6265 277.954 71.6265H276.65C275.482 71.6265 274.429 71.1573 273.491 70.2187C272.552 69.2802 272.083 68.2959 272.083 67.2658C272.083 66.2128 272.186 64.6448 272.392 62.5617C272.621 60.4787 272.735 56.0264 272.735 49.2049C272.735 42.3605 272.529 38.9383 272.117 38.9383C271.499 38.9383 269.359 42.8297 265.696 50.6127C262.057 58.3956 259.733 63.0424 258.726 64.5532C257.719 66.064 256.597 66.8194 255.361 66.8194C254.148 66.8194 253.095 65.961 252.202 64.2442C251.859 63.5804 250.233 59.2311 247.326 51.1964C244.442 43.1388 242.657 39.11 241.97 39.11C241.672 39.11 241.386 39.5105 241.111 40.3117C240.86 41.09 240.39 44.7068 239.704 51.162C239.04 57.6173 238.708 61.9666 238.708 64.2099C238.708 66.4303 238.342 68.1013 237.609 69.223C236.877 70.3218 235.606 70.8711 233.798 70.8711C231.989 70.8711 231.085 70.0013 231.085 68.2616C231.085 68.0327 231.417 67.0484 232.081 65.3086C232.745 63.5689 233.191 61.6346 233.42 59.5058C234.519 49.4109 235.068 41.0442 235.068 34.4059ZM301.362 68.6736H302.255C304.132 68.6736 305.78 68.0441 307.199 66.7851C308.642 65.5032 309.363 64.0267 309.363 62.3557L309.431 61.9093V61.463L309.5 60.3985V58.4414C309.5 57.1137 308.825 56.4498 307.474 56.4498H305.929L305.689 56.4842L304.35 56.5872C303.709 56.6788 303.251 56.7245 302.976 56.7245C301.122 56.7245 299.405 57.4227 297.826 58.8191C296.727 59.8034 296.177 61.1997 296.177 63.0081V63.6948C296.177 65.2285 296.67 66.4417 297.654 67.3345C298.661 68.2272 299.897 68.6736 301.362 68.6736ZM293.705 46.7326C292.172 46.7326 291.405 45.7483 291.405 43.7797C291.405 42.3147 292.641 41.0442 295.113 39.9684C297.608 38.8696 300.195 38.3202 302.873 38.3202H304.59C306.902 38.3202 308.939 38.7551 310.702 39.625C312.464 40.472 313.803 41.628 314.719 43.093C315.658 44.558 316.23 46.4694 316.436 48.8272C316.482 49.3765 316.505 52.0433 316.505 56.8275C316.505 61.6118 316.562 64.3701 316.676 65.1026C316.814 65.8122 317.18 66.6821 317.775 67.7122C318.393 68.7423 318.702 69.5892 318.702 70.2531C318.702 70.9169 318.382 71.4892 317.741 71.9699C317.123 72.4277 316.218 72.6566 315.028 72.6566C313.838 72.6566 312.544 72.3705 311.148 71.7982C309.752 71.2031 308.733 70.9055 308.092 70.9055C308.024 70.9055 306.879 71.3175 304.659 72.1416C302.438 72.9428 300.561 73.3434 299.027 73.3434H298.272C295.708 73.3434 293.522 72.5307 291.714 70.9055C289.928 69.2802 289.035 66.9682 289.035 63.9695C289.035 60.9708 290.02 58.6359 291.988 56.9649C293.957 55.271 296.349 54.115 299.165 53.4969C300.012 53.3138 301.419 53.0734 303.388 52.7758C305.357 52.4783 306.696 52.1692 307.405 51.8488C308.642 51.2765 309.26 50.2006 309.26 48.6211C309.26 47.0188 308.733 45.7712 307.68 44.8785C306.627 43.9628 305.368 43.505 303.903 43.505C302.461 43.505 300.561 44.043 298.203 45.1188C295.846 46.1947 294.346 46.7326 293.705 46.7326ZM328.856 55.1451V52.5012C328.856 49.3193 328.684 46.9959 328.341 45.5309C327.998 44.043 327.826 43.0014 327.826 42.4062C327.826 41.0099 328.845 40.3117 330.882 40.3117C332.919 40.3117 334.396 40.6894 335.311 41.4448C335.563 41.6508 335.884 42.0514 336.273 42.6466C336.685 43.2418 337.051 43.5394 337.372 43.5394C337.44 43.5394 338.436 42.9556 340.359 41.7882C342.282 40.6208 343.93 40.037 345.303 40.037H345.818C346.94 40.037 347.833 40.3117 348.497 40.8611C349.16 41.3876 349.492 42.04 349.492 42.8183V43.2647C349.492 44.2032 349.16 44.8785 348.497 45.2905C347.856 45.7025 346.826 45.9086 345.406 45.9086C342.179 45.9086 339.821 47.0417 338.333 49.3079C336.868 51.5741 336.135 55.58 336.135 61.3256C336.135 62.1497 336.273 63.4201 336.547 65.137C336.845 66.8538 336.994 68.1471 336.994 69.017C336.994 69.8868 336.525 70.7224 335.586 71.5235C334.648 72.3247 333.457 72.7253 332.015 72.7253H330.848C329.589 72.7253 328.616 72.4277 327.929 71.8326C327.265 71.2145 326.933 70.4706 326.933 69.6007C326.933 68.7079 327.094 67.8038 327.414 66.8881C328.284 64.4159 328.719 61.6919 328.719 58.716C328.81 57.0679 328.856 55.8776 328.856 55.1451ZM373.072 69.326C373.072 70.2416 372.511 71.0657 371.389 71.7982C370.291 72.5078 368.791 72.8627 366.891 72.8627C363.343 72.8627 360.848 71.5464 359.406 68.914C358.513 67.2658 358.067 63.4087 358.067 57.3426C358.067 51.2765 357.964 47.7513 357.758 46.767C357.552 45.7827 356.979 44.8212 356.041 43.8827C355.102 42.9442 354.633 42.2231 354.633 41.7195C354.633 41.5364 355.743 40.3346 357.964 38.1142C358.445 37.6335 358.925 36.5691 359.406 34.9209C359.91 33.2728 360.264 32.1854 360.47 31.6589C361.157 30.0108 362.061 29.1867 363.183 29.1867H363.732C364.717 29.1867 365.415 29.5644 365.827 30.3198C365.987 30.6174 366.227 31.6933 366.548 33.5475C366.891 35.3787 367.28 36.5576 367.715 37.0841C368.15 37.6106 369.238 38.1943 370.977 38.8353C372.74 39.4533 373.621 40.1172 373.621 40.8268V41.2045C373.621 42.1201 372.614 42.8984 370.6 43.5394C368.608 44.1574 367.326 45.1532 366.754 46.5266C365.632 49.2964 365.071 53.8059 365.071 60.0552C365.071 62.9852 365.575 64.9767 366.582 66.0297C367.2 66.6707 368.436 67.117 370.291 67.3688C372.145 67.6206 373.072 68.273 373.072 69.326Z" fill="#C3C9CB"/>
<defs>
<clipPath id="clip0_360_3218">
<rect width="67.6" height="67.6" fill="white" transform="translate(2.80029)"/>
</clipPath>
</defs>
</svg>
