<svg width="380" height="97" viewBox="0 0 380 97" fill="none" xmlns="http://www.w3.org/2000/svg">
<g clip-path="url(#clip0_360_3216)">
<path d="M30 68.45L40 78.45L30 88.55L0 58.45L10 48.45L20 58.45L30 48.45L40 58.45L30 68.45Z" fill="#C3C9CB"/>
<path d="M80.1 58.45L50 88.55L40 78.45L50 68.45L40 58.45L50 48.45L60 58.45L70 48.45L80.1 58.45Z" fill="#DDE1E2"/>
<path d="M80.1 38.45L70 48.45L60 38.45L50 48.45L40 38.45L50 28.45L40 18.45L50 8.45001L80.1 38.45Z" fill="#C3C9CB"/>
<path d="M30 28.45L40 38.45L30 48.45L20 38.45L10 48.45L0 38.45L30 8.45001L40 18.45L30 28.45Z" fill="#DDE1E2"/>
</g>
<path d="M134.269 24.7825V36.0339H132.933C132.933 35.7057 132.862 35.3775 132.722 35.0494C132.581 34.7212 132.394 34.5571 132.159 34.5571H109.375V47.0039H127.799C128.034 47.0039 128.221 46.8399 128.362 46.5117C128.503 46.1835 128.573 45.8554 128.573 45.5272H129.909V56.7786H128.573C128.573 56.4504 128.503 56.1222 128.362 55.7941C128.221 55.4659 128.034 55.3018 127.799 55.3018H109.375V76.8904C109.375 77.1248 109.539 77.3123 109.868 77.4529C110.243 77.5936 110.618 77.6639 110.993 77.6639V79H98.6161V77.6639C98.9912 77.6639 99.3428 77.5936 99.671 77.4529C100.046 77.3123 100.234 77.1248 100.234 76.8904V28.3689C100.234 28.1345 100.046 27.947 99.671 27.8063C99.3428 27.6657 99.0146 27.5954 98.6865 27.5954V26.2593H132.159C132.394 26.2593 132.581 26.0952 132.722 25.767C132.862 25.4388 132.933 25.1107 132.933 24.7825H134.269ZM160.535 44.5427V55.8644H159.199C159.199 55.5362 159.129 55.1612 158.988 54.7393C158.848 54.3173 158.66 54.0829 158.426 54.036H157.934C156.48 54.036 155.004 54.458 153.503 55.3018C152.05 56.0988 150.831 57.1771 149.847 58.5366C148.909 59.8492 148.44 61.2557 148.44 62.7559V76.8904C148.44 77.1248 148.604 77.3123 148.932 77.4529C149.308 77.5936 149.659 77.6639 149.987 77.6639V79H138.173V77.6639C138.502 77.6639 138.83 77.5936 139.158 77.4529C139.533 77.3123 139.72 77.1248 139.72 76.8904V48.762C139.72 48.5276 139.533 48.34 139.158 48.1994C138.83 48.0588 138.502 47.9884 138.173 47.9884V46.6523H148.44V49.6761C149.706 48.5041 151.23 47.5665 153.011 46.8633C154.793 46.1601 156.574 45.8085 158.355 45.8085H158.426H158.496C158.731 45.8085 158.895 45.6678 158.988 45.3866C159.129 45.1053 159.199 44.824 159.199 44.5427H160.535ZM181.598 79.8439C178.128 79.8439 175.058 79.1172 172.386 77.6639C169.76 76.1637 167.698 74.1244 166.197 71.546C164.744 68.9675 164.017 66.0609 164.017 62.8262C164.017 59.6383 164.744 56.7317 166.197 54.1064C167.698 51.4811 169.784 49.4183 172.456 47.9181C175.128 46.3711 178.175 45.5975 181.598 45.5975C184.879 45.5975 187.856 46.3476 190.528 47.8478C193.201 49.3011 195.31 51.3404 196.857 53.9657C198.404 56.5442 199.178 59.4976 199.178 62.8262C199.178 65.7328 198.475 68.4987 197.068 71.124C195.709 73.7025 193.693 75.8121 191.021 77.4529C188.348 79.0469 185.207 79.8439 181.598 79.8439ZM181.598 71.7569C184.364 71.7569 186.59 70.96 188.278 69.366C190.013 67.7252 190.88 65.6156 190.88 63.0371C190.88 60.3649 190.013 58.1615 188.278 56.427C186.59 54.6924 184.364 53.8251 181.598 53.8251C179.019 53.8251 176.863 54.6924 175.128 56.427C173.394 58.1147 172.526 60.2477 172.526 62.8262C172.526 65.5452 173.394 67.7252 175.128 69.366C176.863 70.96 179.019 71.7569 181.598 71.7569ZM239.028 47.9884H238.536C237.926 47.9884 237.528 48.1056 237.34 48.34L226.159 62.9668L237.059 77.3123C237.246 77.5467 237.809 77.6639 238.747 77.6639V79H226.37V77.6639C226.933 77.6639 227.214 77.5467 227.214 77.3123C227.214 77.2185 227.12 77.031 226.933 76.7497L221.166 69.1551L215.259 76.82L215.119 77.1013C215.119 77.2889 215.236 77.4529 215.47 77.5936C215.705 77.6873 216.033 77.7342 216.455 77.7342V79H203.375V77.6639H203.727C204.383 77.6639 204.828 77.5467 205.063 77.3123L216.033 62.8262L204.993 48.34C204.805 48.1056 204.242 47.9884 203.305 47.9884V46.6523H215.611V47.9181C215.048 47.9181 214.767 48.0353 214.767 48.2697C214.767 48.4104 214.838 48.5979 214.978 48.8323L220.955 56.7082L227.073 48.8323L227.214 48.551C227.214 48.3635 227.073 48.2228 226.792 48.1291C226.558 47.9884 226.23 47.9181 225.808 47.9181V46.6523H239.028V47.9884Z" fill="#C3C9CB"/>
<defs>
<clipPath id="clip0_360_3216">
<rect width="80.1" height="80.1" fill="white" transform="translate(0 8.45001)"/>
</clipPath>
</defs>
</svg>
