<svg width="48" height="40" viewBox="0 0 48 40" fill="none" xmlns="http://www.w3.org/2000/svg">
<path fill-rule="evenodd" clip-rule="evenodd" d="M21.9961 28.1516V25.7268C19.6163 21.9059 15.9815 18.9431 11.666 17.4109C12.2825 22.9118 16.5494 27.3131 21.9961 28.1516ZM21.9961 31.9588C14.144 31.0414 8.02088 24.485 7.81065 16.4609C6.87004 16.3262 5.90836 16.2564 4.93034 16.2564C4.5363 16.2564 4.14493 16.2678 3.75651 16.2901C3.78085 26.7048 11.7849 35.2506 21.9961 36.1726V31.9588ZM25.7804 31.9588V36.1829C36.048 35.3165 44.1138 26.745 44.1382 16.2901C43.7498 16.2678 43.3584 16.2564 42.9644 16.2564C41.9452 16.2564 40.9437 16.3322 39.9654 16.4783C39.7468 24.4945 33.6268 31.042 25.7804 31.9588ZM25.7804 28.1516V25.919C28.1348 22.042 31.7721 19.0258 36.1054 17.4552C35.4711 22.9354 31.2125 27.3154 25.7804 28.1516ZM25.7804 19.8092V13.4496C29.0554 13.0687 32.03 11.7069 34.4007 9.66665C35.1224 10.8484 35.6493 12.1614 35.9369 13.5614C32.0265 14.7628 28.5456 16.9406 25.7804 19.8092ZM21.9961 13.4476V19.6874C19.2238 16.8519 15.7465 14.7048 11.8466 13.5275C12.1364 12.1365 12.6627 10.8318 13.3815 9.65716C15.75 11.6992 18.7226 13.0634 21.9961 13.4476ZM25.7804 9.64271C28.1239 9.28359 30.2494 8.26494 31.9601 6.78284C30.25 5.29857 28.1244 4.27784 25.7804 3.91698V9.64271ZM21.9961 3.91698V9.64012C19.6553 9.27812 17.5328 8.25805 15.8248 6.77555C17.5334 5.29522 19.6559 4.27725 21.9961 3.91698ZM8.14776 12.7261C9.67696 5.45783 16.1433 0 23.8882 0C27.9083 0 31.5838 1.47043 34.4033 3.90124L34.4062 3.89649C35.3936 4.74697 36.2761 5.71517 37.0317 6.7792L37.0275 6.78512C38.2744 8.54239 39.1754 10.5608 39.632 12.7419C40.721 12.59 41.8335 12.5114 42.9644 12.5114C43.2416 12.5114 43.5178 12.5161 43.7927 12.5255L43.79 12.5114C45.1133 12.5563 46.4092 12.7088 47.6692 12.9603C47.8179 14.0332 47.8947 15.1289 47.8947 16.2424V16.2494V16.2564C47.8947 16.4591 47.8922 16.6612 47.8871 16.8626L47.8868 16.8626C47.5569 29.6969 37.0177 40 24.0648 40C24.0256 40 23.9865 39.9999 23.9474 39.9997C23.9083 39.9999 23.8691 40 23.83 40C10.877 40 0.337795 29.6969 0.00795316 16.8626L0.00760925 16.8626C0.00255086 16.6612 0 16.4591 0 16.2564V16.2494V16.2424C0 15.1289 0.0768504 14.0332 0.22555 12.9603C1.48555 12.7088 2.78143 12.5563 4.10469 12.5114L4.10203 12.5255C4.37697 12.5161 4.6531 12.5114 4.93034 12.5114C6.0215 12.5114 7.09552 12.5845 8.14776 12.7261Z" fill="#101828"/>
</svg>
