<svg width="162" height="42" viewBox="0 0 162 42" fill="none" xmlns="http://www.w3.org/2000/svg">
<path d="M57.88 34V6.56H64.08V28.88H75.36L76.04 34H57.88ZM98.6881 24.36C98.6881 26.4133 98.2481 28.2 97.3681 29.72C96.5148 31.24 95.3281 32.4 93.8081 33.2C92.2881 34 90.5815 34.4 88.6881 34.4H88.0481C86.1548 34.4 84.4481 34 82.9281 33.2C81.4081 32.4 80.2081 31.24 79.3281 29.72C78.4748 28.2 78.0481 26.4133 78.0481 24.36V23.2C78.0481 21.1467 78.4748 19.36 79.3281 17.84C80.2081 16.32 81.4081 15.16 82.9281 14.36C84.4481 13.56 86.1548 13.16 88.0481 13.16H88.6881C90.5815 13.16 92.2881 13.56 93.8081 14.36C95.3281 15.16 96.5148 16.32 97.3681 17.84C98.2481 19.36 98.6881 21.1467 98.6881 23.2V24.36ZM92.7681 22.16C92.7681 20.5333 92.3548 19.2933 91.5281 18.44C90.7281 17.5867 89.6748 17.16 88.3681 17.16C87.0615 17.16 85.9948 17.5867 85.1681 18.44C84.3681 19.2933 83.9681 20.5333 83.9681 22.16V25.4C83.9681 27.0267 84.3681 28.2667 85.1681 29.12C85.9948 29.9733 87.0615 30.4 88.3681 30.4C89.6748 30.4 90.7281 29.9733 91.5281 29.12C92.3548 28.2667 92.7681 27.0267 92.7681 25.4V22.16ZM117.071 29.36C118.937 29.36 120.364 29.8933 121.351 30.96C122.364 32 122.871 33.3733 122.871 35.08C122.871 36.3067 122.524 37.4133 121.831 38.4C121.137 39.3867 120.191 40.1467 118.991 40.68C117.817 41.24 116.511 41.52 115.071 41.52H106.631C105.004 41.52 103.631 41.0667 102.511 40.16C101.417 39.28 100.871 38.0533 100.871 36.48C100.871 35.52 101.151 34.6533 101.711 33.88C102.297 33.08 103.031 32.48 103.911 32.08C103.297 31.68 102.831 31.1867 102.511 30.6C102.191 30.0133 102.031 29.3733 102.031 28.68C102.031 27.6933 102.351 26.84 102.991 26.12C103.631 25.3733 104.457 24.84 105.471 24.52C104.564 23.96 103.857 23.2533 103.351 22.4C102.844 21.52 102.591 20.5867 102.591 19.6C102.591 17.7067 103.324 16.16 104.791 14.96C106.284 13.76 108.457 13.16 111.311 13.16H111.951C113.204 13.16 114.324 13.32 115.311 13.64C116.404 13 117.164 12.3467 117.591 11.68C118.017 11.0133 118.257 10.4133 118.311 9.88H122.871C122.871 12.7067 121.457 14.4667 118.631 15.16L118.591 15.28C120.004 16.48 120.711 17.92 120.711 19.6C120.711 20.7733 120.377 21.8533 119.711 22.84C119.044 23.8 118.097 24.5733 116.871 25.16C115.671 25.72 114.284 26 112.711 26H109.951C109.151 26 108.524 26.1733 108.071 26.52C107.644 26.8667 107.431 27.2533 107.431 27.68C107.431 28.2133 107.631 28.6267 108.031 28.92C108.457 29.2133 109.097 29.36 109.951 29.36H117.071ZM108.191 19.6C108.191 20.5333 108.524 21.2667 109.191 21.8C109.857 22.3067 110.697 22.56 111.711 22.56C112.751 22.56 113.604 22.3067 114.271 21.8C114.937 21.2667 115.271 20.5333 115.271 19.6C115.271 18.6667 114.937 17.9467 114.271 17.44C113.604 16.9067 112.751 16.64 111.711 16.64C110.697 16.64 109.857 16.9067 109.191 17.44C108.524 17.9467 108.191 18.6667 108.191 19.6ZM114.911 37.92C115.604 37.92 116.204 37.7067 116.711 37.28C117.217 36.88 117.471 36.4 117.471 35.84C117.471 35.3067 117.257 34.8533 116.831 34.48C116.404 34.1333 115.844 33.96 115.151 33.96H108.191C107.604 33.96 107.097 34.1467 106.671 34.52C106.244 34.92 106.031 35.3867 106.031 35.92C106.031 36.4533 106.244 36.92 106.671 37.32C107.097 37.72 107.604 37.92 108.191 37.92H114.911ZM144.704 24.36C144.704 26.4133 144.264 28.2 143.384 29.72C142.53 31.24 141.344 32.4 139.824 33.2C138.304 34 136.597 34.4 134.704 34.4H134.064C132.17 34.4 130.464 34 128.944 33.2C127.424 32.4 126.224 31.24 125.344 29.72C124.49 28.2 124.064 26.4133 124.064 24.36V23.2C124.064 21.1467 124.49 19.36 125.344 17.84C126.224 16.32 127.424 15.16 128.944 14.36C130.464 13.56 132.17 13.16 134.064 13.16H134.704C136.597 13.16 138.304 13.56 139.824 14.36C141.344 15.16 142.53 16.32 143.384 17.84C144.264 19.36 144.704 21.1467 144.704 23.2V24.36ZM138.784 22.16C138.784 20.5333 138.37 19.2933 137.544 18.44C136.744 17.5867 135.69 17.16 134.384 17.16C133.077 17.16 132.01 17.5867 131.184 18.44C130.384 19.2933 129.984 20.5333 129.984 22.16V25.4C129.984 27.0267 130.384 28.2667 131.184 29.12C132.01 29.9733 133.077 30.4 134.384 30.4C135.69 30.4 136.744 29.9733 137.544 29.12C138.37 28.2667 138.784 27.0267 138.784 25.4V22.16Z" fill="#101828"/>
<path fill-rule="evenodd" clip-rule="evenodd" d="M21.9961 29.1516V26.7268C19.6163 22.9059 15.9815 19.9431 11.666 18.4109C12.2825 23.9118 16.5494 28.3131 21.9961 29.1516ZM21.9961 32.9588C14.144 32.0414 8.02088 25.485 7.81065 17.4609C6.87004 17.3262 5.90836 17.2564 4.93034 17.2564C4.5363 17.2564 4.14493 17.2678 3.75651 17.2901C3.78085 27.7048 11.7849 36.2506 21.9961 37.1726V32.9588ZM25.7804 32.9588V37.1829C36.048 36.3165 44.1138 27.745 44.1382 17.2901C43.7498 17.2678 43.3584 17.2564 42.9644 17.2564C41.9452 17.2564 40.9437 17.3322 39.9654 17.4783C39.7468 25.4945 33.6268 32.042 25.7804 32.9588ZM25.7804 29.1516V26.919C28.1348 23.042 31.7721 20.0258 36.1054 18.4552C35.4711 23.9354 31.2125 28.3154 25.7804 29.1516ZM25.7804 20.8092V14.4496C29.0554 14.0687 32.03 12.7069 34.4007 10.6666C35.1224 11.8484 35.6493 13.1614 35.9369 14.5614C32.0265 15.7628 28.5456 17.9406 25.7804 20.8092ZM21.9961 14.4476V20.6874C19.2238 17.8519 15.7465 15.7048 11.8466 14.5275C12.1364 13.1365 12.6627 11.8318 13.3815 10.6572C15.75 12.6992 18.7226 14.0634 21.9961 14.4476ZM25.7804 10.6427C28.1239 10.2836 30.2494 9.26494 31.9601 7.78284C30.25 6.29857 28.1244 5.27784 25.7804 4.91698V10.6427ZM21.9961 4.91698V10.6401C19.6553 10.2781 17.5328 9.25805 15.8248 7.77555C17.5334 6.29522 19.6559 5.27725 21.9961 4.91698ZM8.14776 13.7261C9.67696 6.45783 16.1433 1 23.8882 1C27.9083 1 31.5838 2.47043 34.4033 4.90124L34.4062 4.89649C35.3936 5.74697 36.2761 6.71517 37.0317 7.7792L37.0275 7.78512C38.2744 9.54239 39.1754 11.5608 39.632 13.7419C40.721 13.59 41.8335 13.5114 42.9644 13.5114C43.2416 13.5114 43.5178 13.5161 43.7927 13.5255L43.79 13.5114C45.1133 13.5563 46.4092 13.7088 47.6692 13.9603C47.8179 15.0332 47.8947 16.1289 47.8947 17.2424V17.2494V17.2564C47.8947 17.4591 47.8922 17.6612 47.8871 17.8626L47.8868 17.8626C47.5569 30.6969 37.0177 41 24.0648 41C24.0256 41 23.9865 40.9999 23.9474 40.9997C23.9083 40.9999 23.8691 41 23.83 41C10.877 41 0.337795 30.6969 0.00795316 17.8626L0.00760925 17.8626C0.00255086 17.6612 0 17.4591 0 17.2564V17.2494V17.2424C0 16.1289 0.0768504 15.0332 0.22555 13.9603C1.48555 13.7088 2.78143 13.5563 4.10469 13.5114L4.10203 13.5255C4.37697 13.5161 4.6531 13.5114 4.93034 13.5114C6.0215 13.5114 7.09552 13.5845 8.14776 13.7261Z" fill="#101828"/>
</svg>
