<svg width="141" height="228" viewBox="0 0 141 228" fill="none" xmlns="http://www.w3.org/2000/svg">
<path d="M-11 38.3333L27.3333 0H65V38.3333L27.3333 76V38.3333H-11Z" fill="white"/>
<path d="M-11 114.333L27.3333 76H65V114.333L27.3333 152V114.333H-11Z" fill="white"/>
<path d="M-11 190.333L27.3333 152H65V190.333L27.3333 228V190.333H-11Z" fill="white"/>
<path d="M65 38.3333L103.333 0H141V38.3333L103.333 76V38.3333H65Z" fill="white"/>
<path d="M65 114.333L103.333 76H141V114.333L103.333 152V114.333H65Z" fill="white"/>
<path d="M65 190.333L103.333 152H141V190.333L103.333 228V190.333H65Z" fill="white"/>
</svg>
