<svg width="104" height="228" viewBox="0 0 104 228" fill="none" xmlns="http://www.w3.org/2000/svg">
<g opacity="0.5">
<path d="M-48 38.3333L-9.66666 0H28V38.3333L-9.66666 76V38.3333H-48Z" fill="white"/>
<path d="M-48 114.333L-9.66666 76H28V114.333L-9.66666 152V114.333H-48Z" fill="white"/>
<path d="M-48 190.333L-9.66666 152H28V190.333L-9.66666 228V190.333H-48Z" fill="white"/>
<path d="M28 38.3333L66.3333 0H104V38.3333L66.3333 76V38.3333H28Z" fill="white"/>
<path d="M28 114.333L66.3333 76H104V114.333L66.3333 152V114.333H28Z" fill="white"/>
<path d="M28 190.333L66.3333 152H104V190.333L66.3333 228V190.333H28Z" fill="white"/>
</g>
</svg>
