<svg width="149" height="228" viewBox="0 0 149 228" fill="none" xmlns="http://www.w3.org/2000/svg">
<path d="M-3 38.3333L35.3333 0H73V38.3333L35.3333 76V38.3333H-3Z" fill="white"/>
<path d="M-3 114.333L35.3333 76H73V114.333L35.3333 152V114.333H-3Z" fill="white"/>
<path d="M-3 190.333L35.3333 152H73V190.333L35.3333 228V190.333H-3Z" fill="white"/>
<path d="M73 38.3333L111.333 0H149V38.3333L111.333 76V38.3333H73Z" fill="white"/>
<path d="M73 114.333L111.333 76H149V114.333L111.333 152V114.333H73Z" fill="white"/>
<path d="M73 190.333L111.333 152H149V190.333L111.333 228V190.333H73Z" fill="white"/>
</svg>
