<svg width="24" height="24" viewBox="0 0 24 24" fill="none" xmlns="http://www.w3.org/2000/svg">
<path d="M19.0611 16.146C18.9218 16.2854 18.7564 16.396 18.5744 16.4714C18.3923 16.5469 18.1972 16.5857 18.0001 16.5857C17.8031 16.5857 17.6079 16.5469 17.4259 16.4714C17.2438 16.396 17.0784 16.2854 16.9391 16.146L12.3531 11.561C12.2594 11.4673 12.1322 11.4146 11.9996 11.4146C11.8671 11.4146 11.7399 11.4673 11.6461 11.561L7.06113 16.146C6.77987 16.4274 6.39834 16.5855 6.00048 16.5856C5.60262 16.5857 5.22102 16.4278 4.93963 16.1465C4.65823 15.8653 4.50009 15.4837 4.5 15.0859C4.49991 14.688 4.65787 14.3064 4.93913 14.025L9.52513 9.43901C9.85014 9.11397 10.236 8.85613 10.6607 8.68022C11.0853 8.5043 11.5405 8.41376 12.0001 8.41376C12.4598 8.41376 12.9149 8.5043 13.3396 8.68022C13.7643 8.85613 14.1501 9.11397 14.4751 9.43901L19.0611 14.025C19.3423 14.3063 19.5003 14.6878 19.5003 15.0855C19.5003 15.4833 19.3423 15.8647 19.0611 16.146Z" fill="white"/>
</svg>
