<svg width="12" height="10" viewBox="0 0 12 10" fill="none" xmlns="http://www.w3.org/2000/svg">
<path d="M10.5458 3.14372L7.85625 0.454223C7.64521 0.243277 7.35901 0.124808 7.06061 0.124878C6.76222 0.124948 6.47607 0.243552 6.26513 0.454598C6.05418 0.665644 5.93571 0.951844 5.93578 1.25024C5.93585 1.54863 6.05446 1.83478 6.2655 2.04572L8.09475 3.87497H1.5C1.20163 3.87497 0.915484 3.9935 0.704505 4.20448C0.493527 4.41546 0.375 4.7016 0.375 4.99997C0.375 5.29834 0.493527 5.58449 0.704505 5.79547C0.915484 6.00645 1.20163 6.12497 1.5 6.12497H8.09475L6.2655 7.95422C6.05446 8.16517 5.93585 8.45131 5.93578 8.74971C5.93571 9.0481 6.05418 9.3343 6.26513 9.54535C6.47607 9.75639 6.76222 9.875 7.06061 9.87507C7.35901 9.87514 7.64521 9.75667 7.85625 9.54572L10.5458 6.85622C11.0372 6.36344 11.3131 5.69591 11.3131 4.99997C11.3131 4.30404 11.0372 3.6365 10.5458 3.14372Z" fill="white"/>
</svg>
