<svg width="12" height="10" viewBox="0 0 12 10" fill="none" xmlns="http://www.w3.org/2000/svg">
<path d="M1.45425 6.85616L4.14375 9.54565C4.35479 9.7566 4.64099 9.87507 4.93939 9.875C5.23778 9.87493 5.52393 9.75633 5.73487 9.54528C5.94582 9.33423 6.06429 9.04803 6.06422 8.74964C6.06415 8.45125 5.94554 8.1651 5.7345 7.95416L3.90525 6.12491H10.5C10.7984 6.12491 11.0845 6.00638 11.2955 5.7954C11.5065 5.58442 11.625 5.29827 11.625 4.99991C11.625 4.70154 11.5065 4.41539 11.2955 4.20441C11.0845 3.99343 10.7984 3.87491 10.5 3.87491H3.90525L5.7345 2.04566C5.94554 1.83471 6.06415 1.54857 6.06422 1.25017C6.06429 0.951778 5.94582 0.665579 5.73487 0.454533C5.52393 0.243487 5.23778 0.124882 4.93939 0.124811C4.64099 0.124741 4.35479 0.24321 4.14375 0.454156L1.45425 3.14366C0.962821 3.63643 0.686856 4.30397 0.686856 4.99991C0.686856 5.69584 0.962821 6.36338 1.45425 6.85616V6.85616Z" fill="#101828"/>
</svg>
