<svg width="117" height="117" viewBox="0 0 117 117" fill="none" xmlns="http://www.w3.org/2000/svg">
<g filter="url(#filter0_d_208_2870)">
<rect x="30.3828" y="20.292" width="56.0535" height="55.8568" rx="27.9284" fill="#006D77"/>
</g>
<path d="M66.8186 44.7158L62.7844 40.6815C62.4678 40.3651 62.0385 40.1874 61.5909 40.1875C61.1433 40.1876 60.7141 40.3655 60.3977 40.6821C60.0813 40.9986 59.9036 41.4279 59.9037 41.8755C59.9038 42.3231 60.0817 42.7523 60.3983 43.0688L63.1421 45.8126H53.25C52.8024 45.8126 52.3732 45.9904 52.0568 46.3069C51.7403 46.6234 51.5625 47.0526 51.5625 47.5001C51.5625 47.9477 51.7403 48.3769 52.0568 48.6934C52.3732 49.0099 52.8024 49.1876 53.25 49.1876H63.1421L60.3983 51.9315C60.0817 52.2479 59.9038 52.6772 59.9037 53.1247C59.9036 53.5723 60.0813 54.0016 60.3977 54.3182C60.7141 54.6348 61.1433 54.8127 61.5909 54.8128C62.0385 54.8129 62.4678 54.6352 62.7844 54.3188L66.8186 50.2845C67.5558 49.5453 67.9697 48.544 67.9697 47.5001C67.9697 46.4562 67.5558 45.4549 66.8186 44.7158V44.7158Z" fill="white"/>
<defs>
<filter id="filter0_d_208_2870" x="0.382812" y="0.291992" width="116.053" height="115.857" filterUnits="userSpaceOnUse" color-interpolation-filters="sRGB">
<feFlood flood-opacity="0" result="BackgroundImageFix"/>
<feColorMatrix in="SourceAlpha" type="matrix" values="0 0 0 0 0 0 0 0 0 0 0 0 0 0 0 0 0 0 127 0" result="hardAlpha"/>
<feOffset dy="10"/>
<feGaussianBlur stdDeviation="15"/>
<feColorMatrix type="matrix" values="0 0 0 0 1 0 0 0 0 0.847059 0 0 0 0 0.188235 0 0 0 0.2 0"/>
<feBlend mode="normal" in2="BackgroundImageFix" result="effect1_dropShadow_208_2870"/>
<feBlend mode="normal" in="SourceGraphic" in2="effect1_dropShadow_208_2870" result="shape"/>
</filter>
</defs>
</svg>
