<svg width="37" height="37" viewBox="0 0 37 37" fill="none" xmlns="http://www.w3.org/2000/svg">
<g id="fi-sr-resources 1" clip-path="url(#clip0_9_297)">
<path id="Vector" d="M33.1458 3.08349H20.8125C19.7903 3.08349 18.81 3.48955 18.0872 4.21234C17.3644 4.93514 16.9583 5.91546 16.9583 6.93765V7.40015L15.0081 4.01774C14.7618 3.56258 14.4275 3.16086 14.0248 2.83588C13.622 2.5109 13.1587 2.26912 12.6617 2.12457C11.8352 1.89197 10.9546 1.94205 10.1597 2.26687C9.36487 2.59168 8.70124 3.17262 8.27413 3.91753L0.578137 17.2468C0.308154 17.6878 0.12827 18.178 0.048885 18.6889C-0.0305003 19.1999 -0.00781224 19.7216 0.115638 20.2237C0.327499 21.0542 0.81011 21.7903 1.48718 22.3158C2.16424 22.8412 2.99713 23.126 3.85418 23.1251H8.01668C7.55119 24.7486 7.46911 26.458 7.7769 28.1185C8.0847 29.7791 8.77395 31.3455 9.79035 32.6943C10.8067 34.0431 12.1225 35.1374 13.6339 35.8909C15.1454 36.6445 16.8111 37.0367 18.5 37.0367C20.1889 37.0367 21.8547 36.6445 23.3661 35.8909C24.8775 35.1374 26.1933 34.0431 27.2097 32.6943C28.2261 31.3455 28.9153 29.7791 29.2231 28.1185C29.5309 26.458 29.4488 24.7486 28.9833 23.1251H33.1458C33.652 23.1251 34.1531 23.0254 34.6208 22.8318C35.0884 22.6381 35.5132 22.3542 35.8711 21.9963C36.229 21.6384 36.5129 21.2135 36.7066 20.7459C36.9003 20.2783 37 19.7771 37 19.271V6.93765C37 6.43151 36.9003 5.93033 36.7066 5.46272C36.5129 4.99512 36.229 4.57024 35.8711 4.21234C35.5132 3.85445 35.0884 3.57056 34.6208 3.37687C34.1531 3.18318 33.652 3.08349 33.1458 3.08349ZM5.19543 18.5001L11.6118 7.38627L16.2523 15.4168C14.1295 15.8657 12.1896 16.9396 10.6822 18.5001H5.19543ZM18.5 32.3751C17.2578 32.3751 16.0435 32.0068 15.0106 31.3166C13.9777 30.6265 13.1727 29.6456 12.6974 28.4979C12.222 27.3503 12.0976 26.0874 12.3399 24.8691C12.5823 23.6507 13.1805 22.5316 14.0588 21.6532C14.9372 20.7748 16.0563 20.1767 17.2747 19.9343C18.493 19.692 19.7559 19.8164 20.9035 20.2917C22.0512 20.7671 23.0321 21.5721 23.7223 22.605C24.4124 23.6378 24.7808 24.8522 24.7808 26.0944C24.7787 27.7595 24.1163 29.3559 22.9389 30.5333C21.7615 31.7107 20.1651 32.3731 18.5 32.3751ZM32.375 18.5001H26.3178C24.9964 17.1726 23.3714 16.1873 21.5833 15.6296V7.70848H32.375V18.5001Z" fill="#101828"/>
</g>
<defs>
<clipPath id="clip0_9_297">
<rect width="37" height="37" fill="white"/>
</clipPath>
</defs>
</svg>
