<svg width="37" height="37" viewBox="0 0 37 37" fill="none" xmlns="http://www.w3.org/2000/svg">
<g clip-path="url(#clip0_9_305)">
<path d="M36.6917 12.574L31.43 28.6073C31.0981 29.7224 30.5154 30.7467 29.7266 31.6018C28.9377 32.4569 27.9637 33.1201 26.879 33.5407C27.4551 32.1983 27.7515 30.7526 27.75 29.2918V13.8752C27.7467 11.014 26.6087 8.27102 24.5856 6.2479C22.5625 4.22477 19.8195 3.08675 16.9583 3.08349H14.3915C15.3434 1.82415 16.658 0.886335 18.1586 0.396055C19.6592 -0.0942258 21.274 -0.113487 22.7858 0.34086L31.5517 3.03261C33.4869 3.63377 35.1091 4.96976 36.0701 6.75371C37.0311 8.53766 37.2543 10.6273 36.6917 12.574ZM24.6667 13.8752V29.2918C24.6642 31.3355 23.8513 33.2947 22.4062 34.7397C20.9612 36.1848 19.002 36.9977 16.9583 37.0002H7.70833C5.66471 36.9977 3.70548 36.1848 2.26042 34.7397C0.81536 33.2947 0.00244795 31.3355 0 29.2918L0 13.8752C0.00244795 11.8315 0.81536 9.87231 2.26042 8.42724C3.70548 6.98218 5.66471 6.16927 7.70833 6.16682H16.9583C19.002 6.16927 20.9612 6.98218 22.4062 8.42724C23.8513 9.87231 24.6642 11.8315 24.6667 13.8752ZM18.5 20.0418C18.5 19.2241 18.1751 18.4398 17.5969 17.8616C17.0187 17.2833 16.2344 16.9585 15.4167 16.9585C14.5989 16.9585 13.8147 17.2833 13.2364 17.8616C12.6582 18.4398 12.3333 19.2241 12.3333 20.0418C12.3333 19.2241 12.0085 18.4398 11.4302 17.8616C10.852 17.2833 10.0677 16.9585 9.25 16.9585C8.43225 16.9585 7.64799 17.2833 7.06975 17.8616C6.49152 18.4398 6.16667 19.2241 6.16667 20.0418C6.16667 22.2772 8.547 25.2696 10.3507 26.7912C10.9049 27.2601 11.6074 27.5174 12.3333 27.5174C13.0593 27.5174 13.7617 27.2601 14.3159 26.7912C16.1197 25.2696 18.5 22.2772 18.5 20.0418Z" fill="#101828"/>
</g>
<defs>
<clipPath id="clip0_9_305">
<rect width="37" height="37" fill="white"/>
</clipPath>
</defs>
</svg>
