<svg width="37" height="37" viewBox="0 0 37 37" fill="none" xmlns="http://www.w3.org/2000/svg">
<g clip-path="url(#clip0_9_313)">
<path d="M8.47917 32.375C7.45698 32.375 6.47666 31.9689 5.75386 31.2461C5.03106 30.5233 4.625 29.543 4.625 28.5208V2.3125C4.625 1.69919 4.38136 1.11099 3.94768 0.677316C3.51401 0.243638 2.92581 0 2.3125 0V0C1.69919 0 1.11099 0.243638 0.677316 0.677316C0.243638 1.11099 0 1.69919 0 2.3125L0 28.5208C0 30.7696 0.893338 32.9264 2.48349 34.5165C4.07364 36.1067 6.23035 37 8.47917 37H34.6875C35.3008 37 35.889 36.7564 36.3227 36.3227C36.7564 35.889 37 35.3008 37 34.6875C37 34.0742 36.7564 33.486 36.3227 33.0523C35.889 32.6186 35.3008 32.375 34.6875 32.375H8.47917Z" fill="#101828"/>
<path d="M30.0625 27.75C30.6758 27.75 31.264 27.5064 31.6977 27.0727C32.1314 26.639 32.375 26.0508 32.375 25.4375V16.1875C32.375 15.5742 32.1314 14.986 31.6977 14.5523C31.264 14.1186 30.6758 13.875 30.0625 13.875C29.4492 13.875 28.861 14.1186 28.4273 14.5523C27.9936 14.986 27.75 15.5742 27.75 16.1875V25.4375C27.75 26.0508 27.9936 26.639 28.4273 27.0727C28.861 27.5064 29.4492 27.75 30.0625 27.75Z" fill="#101828"/>
<path d="M11.5625 27.75C12.1758 27.75 12.764 27.5064 13.1977 27.0727C13.6314 26.639 13.875 26.0508 13.875 25.4375V16.1875C13.875 15.5742 13.6314 14.986 13.1977 14.5523C12.764 14.1186 12.1758 13.875 11.5625 13.875C10.9492 13.875 10.361 14.1186 9.92732 14.5523C9.49364 14.986 9.25 15.5742 9.25 16.1875V25.4375C9.25 26.0508 9.49364 26.639 9.92732 27.0727C10.361 27.5064 10.9492 27.75 11.5625 27.75Z" fill="#101828"/>
<path d="M20.8125 27.7499C21.4258 27.7499 22.014 27.5062 22.4477 27.0725C22.8814 26.6389 23.125 26.0507 23.125 25.4374V8.47901C23.125 7.86569 22.8814 7.2775 22.4477 6.84382C22.014 6.41014 21.4258 6.1665 20.8125 6.1665C20.1992 6.1665 19.611 6.41014 19.1773 6.84382C18.7436 7.2775 18.5 7.86569 18.5 8.47901V25.4374C18.5 26.0507 18.7436 26.6389 19.1773 27.0725C19.611 27.5062 20.1992 27.7499 20.8125 27.7499Z" fill="#101828"/>
</g>
<defs>
<clipPath id="clip0_9_313">
<rect width="37" height="37" fill="white"/>
</clipPath>
</defs>
</svg>
