<svg width="18" height="18" viewBox="0 0 18 18" fill="none" xmlns="http://www.w3.org/2000/svg">
<rect width="18" height="18" fill="#1E1E1E"/>
<g id="Homepage 6" clip-path="url(#clip0_0_1)">
<rect width="1920" height="2412" transform="translate(-335 -1921)" fill="white"/>
<g id="Section Contact">
<rect id="bg" x="-335" y="-314" width="1920" height="805" fill="#F2F4F7"/>
<g id="left">
<g id="Group 1000004574">
<g id="fi-sr-home 1" clip-path="url(#clip1_0_1)">
<g id="Group">
<path id="Vector" d="M9 11.2446C7.75737 11.2446 6.75 12.252 6.75 13.4946V17.9946H11.25V13.4946C11.25 12.252 10.2426 11.2446 9 11.2446Z" fill="#101828"/>
<g id="Group_2">
<path id="Vector_2" d="M12.75 13.4947V17.9947H15.75C16.9926 17.9947 18 16.9873 18 15.7447V8.90392C18.0002 8.51428 17.8488 8.13987 17.5777 7.85992L11.2043 0.96964C10.0797 -0.247118 8.18167 -0.321825 6.96491 0.802753C6.90711 0.856191 6.85143 0.911843 6.79802 0.96964L0.435762 7.85767C0.156551 8.13878 -0.000105416 8.51896 5.32206e-08 8.91517V15.7447C5.32206e-08 16.9873 1.00737 17.9947 2.25 17.9947H5.24999V13.4947C5.26401 11.4495 6.9152 9.77948 8.9088 9.73139C10.9691 9.68168 12.7343 11.3802 12.75 13.4947Z" fill="#101828"/>
<path id="Vector_3" d="M9 11.2446C7.75737 11.2446 6.75 12.252 6.75 13.4946V17.9946H11.25V13.4946C11.25 12.252 10.2426 11.2446 9 11.2446Z" fill="#101828"/>
</g>
</g>
</g>
</g>
</g>
<g id="right">
</g>
</g>
</g>
<defs>
<clipPath id="clip0_0_1">
<rect width="1920" height="2412" fill="white" transform="translate(-335 -1921)"/>
</clipPath>
<clipPath id="clip1_0_1">
<rect width="18" height="18" fill="white"/>
</clipPath>
</defs>
</svg>
