<svg width="19" height="23" viewBox="0 0 19 23" fill="none" xmlns="http://www.w3.org/2000/svg">
<path d="M17.014 7.63058L7.73665 0.925949C7.01203 0.403005 6.15464 0.0880264 5.25951 0.0159287C4.36437 -0.056169 3.46647 0.11743 2.66531 0.517483C1.86416 0.917536 1.19105 1.52842 0.720604 2.28241C0.250155 3.03641 0.000740351 3.90407 5.869e-06 4.78921V18.2052C-0.00139137 19.0912 0.246719 19.9602 0.71672 20.7155C1.18672 21.4708 1.86017 22.0827 2.66211 22.4831C3.46405 22.8836 4.36301 23.0568 5.25893 22.9836C6.15486 22.9104 7.01259 22.5936 7.73665 22.0684L17.014 15.3638C17.6296 14.9186 18.1302 14.3367 18.4752 13.6654C18.8202 12.9941 19 12.2521 19 11.4996C19 10.7471 18.8202 10.0051 18.4752 9.33376C18.1302 8.66243 17.6296 8.0806 17.014 7.63537V7.63058Z" fill="#006D77"/>
</svg>
