<svg width="16" height="16" viewBox="0 0 16 16" fill="none" xmlns="http://www.w3.org/2000/svg">
<g clip-path="url(#clip0_153_2398)">
<path d="M15.9693 3.69482L10.3573 9.30682C9.73158 9.93099 8.88383 10.2815 8 10.2815C7.11617 10.2815 6.26842 9.93099 5.64266 9.30682L0.0306667 3.69482C0.0213333 3.80016 0 3.89549 0 4.00016V12.0002C0.00105857 12.8839 0.352588 13.7311 0.97748 14.356C1.60237 14.9809 2.4496 15.3324 3.33333 15.3335H12.6667C13.5504 15.3324 14.3976 14.9809 15.0225 14.356C15.6474 13.7311 15.9989 12.8839 16 12.0002V4.00016C16 3.89549 15.9787 3.80016 15.9693 3.69482Z" fill="#667085"/>
<path d="M9.41477 8.36385L15.5041 2.27384C15.2091 1.78472 14.7931 1.37986 14.2961 1.09832C13.7991 0.816786 13.238 0.668064 12.6668 0.666504H3.33343C2.76224 0.668064 2.2011 0.816786 1.70411 1.09832C1.20713 1.37986 0.79108 1.78472 0.496094 2.27384L6.58543 8.36385C6.96115 8.73806 7.46982 8.94816 8.0001 8.94816C8.53038 8.94816 9.03905 8.73806 9.41477 8.36385Z" fill="#667085"/>
</g>
<defs>
<clipPath id="clip0_153_2398">
<rect width="16" height="16" fill="white"/>
</clipPath>
</defs>
</svg>
