<svg width="33" height="33" viewBox="0 0 33 33" fill="none" xmlns="http://www.w3.org/2000/svg">
<circle cx="16.5" cy="16.5" r="16.5" fill="#006D77"/>
<path d="M14.884 19.578V18.302C14.884 17.818 15.0087 17.4073 15.258 17.07C15.5073 16.7327 15.896 16.3147 16.424 15.816C16.952 15.332 17.348 14.8993 17.612 14.518C17.8907 14.1367 18.03 13.682 18.03 13.154C18.03 12.5673 17.8613 12.098 17.524 11.746C17.2013 11.3793 16.71 11.196 16.05 11.196C15.2727 11.196 14.73 11.416 14.422 11.856C14.1287 12.296 13.982 12.7947 13.982 13.352L14.004 14.056H10.902C10.858 13.66 10.836 13.3887 10.836 13.242C10.836 12.4793 11.0487 11.746 11.474 11.042C11.914 10.338 12.53 9.77333 13.322 9.348C14.114 8.908 15.016 8.688 16.028 8.688H16.512C17.5387 8.688 18.426 8.89333 19.174 9.304C19.922 9.71467 20.4867 10.2647 20.868 10.954C21.264 11.6433 21.462 12.3913 21.462 13.198C21.462 13.8727 21.3447 14.4593 21.11 14.958C20.89 15.4567 20.626 15.8673 20.318 16.19C20.01 16.498 19.614 16.8427 19.13 17.224C18.69 17.5907 18.3673 17.884 18.162 18.104C17.9713 18.324 17.876 18.5807 17.876 18.874V19.578H14.884ZM14.752 20.766H17.986V24H14.752V20.766Z" fill="white"/>
</svg>
