<svg width="137" height="129" viewBox="0 0 137 129" fill="none" xmlns="http://www.w3.org/2000/svg">
<g clip-path="url(#clip0_68_1716)" filter="url(#filter0_d_68_1716)">
<path d="M107.199 89.5566C99.5532 89.5566 95.6066 92.3321 92.1255 94.7797C89.0676 96.9292 86.6524 98.627 81.3978 98.627C76.1442 98.627 73.729 96.9292 70.6721 94.7797C67.191 92.3311 63.2444 89.5566 55.5982 89.5566C47.953 89.5566 44.0064 92.3321 40.5253 94.7797C37.4684 96.9292 35.0532 98.627 29.7996 98.627C24.546 98.627 22.1308 96.9292 19.0739 94.7797C15.5918 92.3321 11.6452 89.5566 4 89.5566V97.1152C9.2546 97.1152 11.6688 98.813 14.7257 100.963C18.2078 103.411 22.1534 106.186 29.7996 106.186C37.4448 106.186 41.3914 103.411 44.8725 100.963C47.9294 98.813 50.3446 97.1152 55.5982 97.1152C60.8528 97.1152 63.2671 98.813 66.3249 100.963C69.806 103.411 73.7526 106.186 81.3978 106.186C89.044 106.186 92.9906 103.411 96.4727 100.963C99.5296 98.814 101.945 97.1152 107.199 97.1152C112.454 97.1152 114.868 98.813 117.926 100.963C121.407 103.411 125.354 106.186 133 106.186V98.627C127.745 98.627 125.33 96.9292 122.273 94.7797C118.791 92.3321 114.845 89.5566 107.199 89.5566Z" fill="#98A2B3"/>
<path d="M107.199 44.9697C99.5532 44.9697 95.6066 47.7442 92.1255 50.1918C89.0676 52.3413 86.6524 54.04 81.3978 54.04C76.1442 54.04 73.729 52.3413 70.6721 50.1918C67.191 47.7442 63.2444 44.9697 55.5982 44.9697C47.953 44.9697 44.0064 47.7442 40.5253 50.1918C37.4684 52.3413 35.0532 54.04 29.7996 54.04C24.546 54.04 22.1308 52.3413 19.0739 50.1918C15.5918 47.7442 11.6452 44.9697 4 44.9697V52.5283C9.2546 52.5283 11.6688 54.2261 14.7257 56.3755C18.2078 58.8242 22.1534 61.5986 29.7996 61.5986C37.4448 61.5986 41.3914 58.8232 44.8725 56.3755C47.9294 54.2261 50.3446 52.5283 55.5982 52.5283C60.8528 52.5283 63.2671 54.2261 66.3249 56.3755C69.806 58.8242 73.7526 61.5986 81.3978 61.5986C89.044 61.5986 92.9906 58.8232 96.4727 56.3755C99.5296 54.2261 101.945 52.5283 107.199 52.5283C112.454 52.5283 114.868 54.2261 117.926 56.3755C121.407 58.8242 125.354 61.5986 133 61.5986V54.04C127.745 54.04 125.33 52.3413 122.273 50.1918C118.791 47.7442 114.845 44.9697 107.199 44.9697Z" fill="#98A2B3"/>
<path d="M107.199 67.2637C99.5532 67.2637 95.6066 70.0381 92.1255 72.4858C89.0676 74.6353 86.6524 76.334 81.3978 76.334C76.1442 76.334 73.729 74.6353 70.6721 72.4858C67.191 70.0381 63.2444 67.2637 55.5982 67.2637C47.953 67.2637 44.0064 70.0381 40.5253 72.4858C37.4684 74.6353 35.0532 76.334 29.7996 76.334C24.546 76.334 22.1308 74.6353 19.0739 72.4858C15.5918 70.0381 11.6452 67.2637 4 67.2637V74.8223C9.2546 74.8223 11.6688 76.52 14.7257 78.6695C18.2078 81.1172 22.1534 83.8926 29.7996 83.8926C37.4448 83.8926 41.3914 81.1172 44.8725 78.6695C47.9294 76.52 50.3446 74.8223 55.5982 74.8223C60.8528 74.8223 63.2671 76.52 66.3249 78.6695C69.806 81.1172 73.7526 83.8926 81.3978 83.8926C89.044 83.8926 92.9906 81.1172 96.4727 78.6695C99.5296 76.52 101.945 74.8223 107.199 74.8223C112.454 74.8223 114.868 76.52 117.926 78.6695C121.407 81.1172 125.354 83.8926 133 83.8926V76.334C127.745 76.334 125.33 74.6353 122.273 72.4858C118.791 70.0381 114.845 67.2637 107.199 67.2637Z" fill="#98A2B3"/>
<path d="M122.273 27.8989C118.791 25.4502 114.845 22.6758 107.199 22.6758C99.5532 22.6758 95.6066 25.4502 92.1255 27.8989C89.0676 30.0484 86.6524 31.7461 81.3978 31.7461C76.1442 31.7461 73.729 30.0484 70.6721 27.8989C67.191 25.4502 63.2444 22.6758 55.5982 22.6758C47.953 22.6758 44.0064 25.4502 40.5253 27.8989C37.4684 30.0484 35.0532 31.7461 29.7996 31.7461C24.546 31.7461 22.1308 30.0484 19.0739 27.8989C15.5918 25.4502 11.6452 22.6758 4 22.6758V30.2344C9.2546 30.2344 11.6688 31.9321 14.7257 34.0816C18.2078 36.5303 22.1534 39.3047 29.7996 39.3047C37.4448 39.3047 41.3914 36.5303 44.8725 34.0816C47.9294 31.9321 50.3446 30.2344 55.5982 30.2344C60.8528 30.2344 63.2671 31.9321 66.3249 34.0816C69.806 36.5303 73.7526 39.3047 81.3978 39.3047C89.044 39.3047 92.9906 36.5303 96.4727 34.0816C99.5296 31.9321 101.945 30.2344 107.199 30.2344C112.454 30.2344 114.868 31.9321 117.926 34.0816C121.407 36.5303 125.354 39.3047 133 39.3047V31.7461C127.745 31.7461 125.33 30.0484 122.273 27.8989Z" fill="#98A2B3"/>
</g>
<defs>
<filter id="filter0_d_68_1716" x="0" y="0" width="137" height="137" filterUnits="userSpaceOnUse" color-interpolation-filters="sRGB">
<feFlood flood-opacity="0" result="BackgroundImageFix"/>
<feColorMatrix in="SourceAlpha" type="matrix" values="0 0 0 0 0 0 0 0 0 0 0 0 0 0 0 0 0 0 127 0" result="hardAlpha"/>
<feOffset dy="4"/>
<feGaussianBlur stdDeviation="2"/>
<feComposite in2="hardAlpha" operator="out"/>
<feColorMatrix type="matrix" values="0 0 0 0 0 0 0 0 0 0 0 0 0 0 0 0 0 0 0.25 0"/>
<feBlend mode="normal" in2="BackgroundImageFix" result="effect1_dropShadow_68_1716"/>
<feBlend mode="normal" in="SourceGraphic" in2="effect1_dropShadow_68_1716" result="shape"/>
</filter>
<clipPath id="clip0_68_1716">
<rect width="129" height="129" fill="white" transform="translate(4)"/>
</clipPath>
</defs>
</svg>
