<svg width="28" height="28" viewBox="0 0 28 28" fill="none" xmlns="http://www.w3.org/2000/svg">
<path d="M12.833 2.3335C18.629 2.3335 23.333 7.0375 23.333 12.8335C23.333 18.6295 18.629 23.3335 12.833 23.3335C7.03701 23.3335 2.33301 18.6295 2.33301 12.8335C2.33301 7.0375 7.03701 2.3335 12.833 2.3335ZM12.833 21.0002C17.3445 21.0002 20.9997 17.345 20.9997 12.8335C20.9997 8.32083 17.3445 4.66683 12.833 4.66683C8.32034 4.66683 4.66634 8.32083 4.66634 12.8335C4.66634 17.345 8.32034 21.0002 12.833 21.0002ZM22.7322 21.083L26.0327 24.3823L24.3818 26.0332L21.0825 22.7327L22.7322 21.083Z" fill="#D0D5DD"/>
</svg>
