<svg width="27" height="26" viewBox="0 0 27 26" fill="none" xmlns="http://www.w3.org/2000/svg">
<g clip-path="url(#clip0_243_295)">
<path opacity="0.8" d="M15.7413 12.7659C15.7413 14.1155 14.6474 15.2094 13.2979 15.2094C11.9483 15.2094 10.8544 14.1155 10.8544 12.7659C10.8544 11.4164 11.9483 10.3224 13.2979 10.3224C14.6474 10.3224 15.7413 11.4164 15.7413 12.7659Z" fill="#98A2B3"/>
<path opacity="0.8" d="M19.0123 8.44273C18.8949 8.12444 18.7075 7.83634 18.464 7.59986C18.2275 7.35637 17.9396 7.16898 17.6211 7.05152C17.3628 6.9512 16.9748 6.83179 16.2601 6.79926C15.487 6.76401 15.2552 6.75641 13.2979 6.75641C11.3404 6.75641 11.1086 6.76381 10.3357 6.79907C9.62096 6.83179 9.23274 6.9512 8.97463 7.05152C8.65615 7.16898 8.36805 7.35637 8.13177 7.59986C7.88827 7.83634 7.70088 8.12425 7.58323 8.44273C7.48291 8.70103 7.3635 9.08925 7.33097 9.80395C7.29571 10.5769 7.28812 10.8087 7.28812 12.7662C7.28812 14.7234 7.29571 14.9552 7.33097 15.7284C7.3635 16.4431 7.48291 16.8311 7.58323 17.0894C7.70088 17.4079 7.88808 17.6958 8.13157 17.9323C8.36805 18.1758 8.65595 18.3632 8.97444 18.4806C9.23274 18.5811 9.62096 18.7005 10.3357 18.7331C11.1086 18.7683 11.3402 18.7757 13.2977 18.7757C15.2553 18.7757 15.4872 18.7683 16.2599 18.7331C16.9746 18.7005 17.3628 18.5811 17.6211 18.4806C18.2604 18.234 18.7657 17.7287 19.0123 17.0894C19.1126 16.8311 19.232 16.4431 19.2648 15.7284C19.3 14.9552 19.3074 14.7234 19.3074 12.7662C19.3074 10.8087 19.3 10.5769 19.2648 9.80395C19.2322 9.08925 19.1128 8.70103 19.0123 8.44273ZM13.2979 16.5301C11.2188 16.5301 9.5335 14.845 9.5335 12.766C9.5335 10.6869 11.2188 9.00179 13.2979 9.00179C15.3767 9.00179 17.0621 10.6869 17.0621 12.766C17.0621 14.845 15.3767 16.5301 13.2979 16.5301ZM17.2109 9.73265C16.7251 9.73265 16.3312 9.33878 16.3312 8.85297C16.3312 8.36715 16.7251 7.97328 17.2109 7.97328C17.6967 7.97328 18.0906 8.36715 18.0906 8.85297C18.0904 9.33878 17.6967 9.73265 17.2109 9.73265Z" fill="#98A2B3"/>
<path opacity="0.8" d="M13.2979 0C6.24851 0 0.531921 5.71659 0.531921 12.766C0.531921 19.8153 6.24851 25.5319 13.2979 25.5319C20.3472 25.5319 26.0638 19.8153 26.0638 12.766C26.0638 5.71659 20.3472 0 13.2979 0ZM20.5841 15.7882C20.5487 16.5685 20.4246 17.1013 20.2434 17.5676C19.8626 18.5523 19.0842 19.3307 18.0995 19.7115C17.6334 19.8927 17.1004 20.0165 16.3203 20.0522C15.5386 20.0878 15.2889 20.0964 13.2981 20.0964C11.3071 20.0964 11.0576 20.0878 10.2757 20.0522C9.49552 20.0165 8.96256 19.8927 8.49643 19.7115C8.0071 19.5274 7.56415 19.2389 7.19793 18.8659C6.8251 18.4999 6.53661 18.0567 6.35253 17.5676C6.17138 17.1015 6.04729 16.5685 6.01184 15.7884C5.9758 15.0065 5.96743 14.7567 5.96743 12.766C5.96743 10.7752 5.9758 10.5254 6.01164 9.74374C6.0471 8.9634 6.17099 8.43064 6.35214 7.96431C6.53622 7.47518 6.82491 7.03203 7.19793 6.66601C7.56395 6.29298 8.0071 6.0045 8.49623 5.82042C8.96256 5.63926 9.49532 5.51537 10.2757 5.47972C11.0574 5.44408 11.3071 5.43551 13.2979 5.43551C15.2887 5.43551 15.5384 5.44408 16.3201 5.47992C17.1004 5.51537 17.6332 5.63926 18.0995 5.82022C18.5887 6.0043 19.0318 6.29298 19.398 6.66601C19.7709 7.03222 20.0595 7.47518 20.2434 7.96431C20.4248 8.43064 20.5487 8.9634 20.5843 9.74374C20.62 10.5254 20.6283 10.7752 20.6283 12.766C20.6283 14.7567 20.62 15.0065 20.5841 15.7882Z" fill="#98A2B3"/>
</g>
<defs>
<clipPath id="clip0_243_295">
<rect width="25.5319" height="25.5319" fill="white" transform="translate(0.531921)"/>
</clipPath>
</defs>
</svg>
