<svg width="55" height="55" viewBox="0 0 55 55" fill="none" xmlns="http://www.w3.org/2000/svg">
<path d="M22.0957 12.8812C23.4711 12.3044 24.0479 10.6627 23.4267 9.33168L21.2527 4.7617C20.6315 3.47545 19.1229 2.89821 17.7919 3.47545C14.0205 5.07272 10.7816 7.15806 8.20823 9.68708C5.05804 12.6593 2.92834 16.0757 1.77475 19.8471C0.621163 23.6632 0 28.854 0 35.4649V49.0861C0 50.5503 1.19796 51.7483 2.66213 51.7483H20.0991C21.5632 51.7483 22.7612 50.5503 22.7612 49.0861V31.6492C22.7612 30.1846 21.5632 28.9871 20.0991 28.9871H11.7577C11.8465 24.5054 12.9113 20.9119 14.8635 18.205C16.4608 16.0318 18.8567 14.2571 22.0957 12.8812Z" fill="white"/>
<path d="M53.4204 12.8811C54.7959 12.3043 55.3722 10.6626 54.7515 9.33155L52.5774 4.80638C51.9563 3.51968 50.4477 2.94289 49.1167 3.51968C45.3897 5.11696 42.1947 7.20229 39.5774 9.68695C36.4267 12.704 34.2531 16.1204 33.0991 19.8918C31.9455 23.6183 31.3691 28.8099 31.3691 35.4652V49.0864C31.3691 50.5506 32.5671 51.7486 34.0313 51.7486H51.4682C52.9324 51.7486 54.1303 50.5506 54.1303 49.0864V31.6495C54.1303 30.1849 52.9324 28.9874 51.4682 28.9874H43.0825C43.1712 24.5057 44.2365 20.9123 46.1883 18.2053C47.7856 16.0317 50.1815 14.2569 53.4204 12.8811Z" fill="white"/>
</svg>
