<svg width="27" height="26" viewBox="0 0 27 26" fill="none" xmlns="http://www.w3.org/2000/svg">
<g clip-path="url(#clip0_243_301)">
<path opacity="0.8" d="M13.3617 0C6.31233 0 0.595734 5.71659 0.595734 12.766C0.595734 19.8153 6.31233 25.5319 13.3617 25.5319C20.4111 25.5319 26.1276 19.8153 26.1276 12.766C26.1276 5.71659 20.4111 0 13.3617 0ZM9.65205 19.2985H6.54296V9.94477H9.65205V19.2985ZM8.0976 8.66751H8.07735C7.03403 8.66751 6.35927 7.94931 6.35927 7.0517C6.35927 6.13384 7.05468 5.43551 8.11825 5.43551C9.18182 5.43551 9.83633 6.13384 9.85659 7.0517C9.85659 7.94931 9.18182 8.66751 8.0976 8.66751ZM20.8628 19.2985H17.7541V14.2945C17.7541 13.0369 17.3039 12.1792 16.179 12.1792C15.3201 12.1792 14.8086 12.7578 14.5838 13.3162C14.5016 13.5161 14.4816 13.7954 14.4816 14.075V19.2985H11.3727C11.3727 19.2985 11.4134 10.8223 11.3727 9.94477H14.4816V11.2692C14.8947 10.6318 15.634 9.72524 17.2835 9.72524C19.329 9.72524 20.8628 11.0621 20.8628 13.9351V19.2985Z" fill="#98A2B3"/>
</g>
<defs>
<clipPath id="clip0_243_301">
<rect width="25.5319" height="25.5319" fill="white" transform="translate(0.595734)"/>
</clipPath>
</defs>
</svg>
