<svg width="18" height="18" viewBox="0 0 18 18" fill="none" xmlns="http://www.w3.org/2000/svg">
<path d="M0 9C0 4.02944 4.02944 0 9 0C13.9706 0 18 4.02944 18 9C18 13.9706 13.9706 18 9 18C4.02944 18 0 13.9706 0 9Z" fill="#55ACEE"/>
<path d="M8.73045 7.31521L8.74934 7.62664L8.43457 7.5885C7.28882 7.44233 6.28787 6.9466 5.438 6.11402L5.02251 5.70091L4.91549 6.00598C4.68886 6.68602 4.83365 7.40419 5.3058 7.88721C5.55761 8.15414 5.50095 8.19228 5.06658 8.03339C4.91549 7.98254 4.78329 7.94441 4.7707 7.96348C4.72663 8.00797 4.87772 8.58632 4.99733 8.81512C5.16101 9.13289 5.49466 9.44431 5.85979 9.62862L6.16826 9.7748L5.80313 9.78116C5.45059 9.78116 5.438 9.78751 5.47577 9.92098C5.60168 10.3341 6.09901 10.7726 6.653 10.9633L7.04331 11.0967L6.70336 11.3001C6.19973 11.5925 5.60798 11.7577 5.01622 11.7704C4.73293 11.7768 4.5 11.8022 4.5 11.8213C4.5 11.8848 5.26803 12.2407 5.715 12.3806C7.0559 12.7937 8.64861 12.6157 9.84472 11.9103C10.6946 11.4082 11.5445 10.4104 11.9411 9.44431C12.1551 8.92952 12.3691 7.9889 12.3691 7.53766C12.3691 7.2453 12.388 7.20717 12.7406 6.85762C12.9483 6.65424 13.1435 6.4318 13.1812 6.36824C13.2442 6.24749 13.2379 6.24749 12.9168 6.35553C12.3817 6.5462 12.3062 6.52078 12.5706 6.23478C12.7657 6.0314 12.9987 5.66278 12.9987 5.55474C12.9987 5.53567 12.9042 5.56745 12.7972 5.62465C12.6839 5.6882 12.4321 5.78354 12.2432 5.84074L11.9033 5.94878L11.5948 5.73905C11.4248 5.62465 11.1856 5.49754 11.0597 5.4594C10.7387 5.37043 10.2476 5.38314 9.95804 5.48483C9.17112 5.77082 8.67379 6.50806 8.73045 7.31521Z" fill="white"/>
</svg>
