<svg width="26" height="26" viewBox="0 0 26 26" fill="none" xmlns="http://www.w3.org/2000/svg">
<g clip-path="url(#clip0_243_299)">
<path opacity="0.8" d="M12.8298 0C5.78043 0 0.0638428 5.71659 0.0638428 12.766C0.0638428 19.8153 5.78043 25.5319 12.8298 25.5319C19.8792 25.5319 25.5958 19.8153 25.5958 12.766C25.5958 5.71659 19.8792 0 12.8298 0ZM18.6586 9.95354C18.6642 10.0792 18.667 10.2054 18.667 10.3322C18.667 14.2041 15.7198 18.669 10.33 18.6692H10.3302H10.33C8.67525 18.6692 7.13542 18.1841 5.83868 17.3529C6.06795 17.38 6.30131 17.3935 6.5376 17.3935C7.9105 17.3935 9.17392 16.9252 10.1769 16.1392C8.8942 16.1154 7.81271 15.2683 7.43949 14.104C7.61811 14.1383 7.8018 14.157 7.99017 14.157C8.25762 14.157 8.51669 14.1209 8.76291 14.0537C7.42215 13.7853 6.41215 12.6004 6.41215 11.1815C6.41215 11.1683 6.41215 11.1564 6.41254 11.1441C6.80738 11.3636 7.25891 11.4957 7.73966 11.5105C6.95289 10.9855 6.43572 10.0881 6.43572 9.07151C6.43572 8.53466 6.58084 8.03171 6.83251 7.59868C8.27749 9.37169 10.437 10.5377 12.8723 10.6602C12.822 10.4456 12.7961 10.222 12.7961 9.9921C12.7961 8.37454 14.1084 7.06222 15.7266 7.06222C16.5694 7.06222 17.3307 7.4185 17.8654 7.98807C18.533 7.85639 19.1598 7.61251 19.7261 7.27688C19.5069 7.9608 19.0425 8.53466 18.4375 8.89756C19.0303 8.82666 19.5952 8.66946 20.1201 8.4361C19.728 9.02379 19.2307 9.53999 18.6586 9.95354Z" fill="#98A2B3"/>
</g>
<defs>
<clipPath id="clip0_243_299">
<rect width="25.5319" height="25.5319" fill="white" transform="translate(0.0638428)"/>
</clipPath>
</defs>
</svg>
