<svg width="129" height="129" viewBox="0 0 129 129" fill="none" xmlns="http://www.w3.org/2000/svg">
<g clip-path="url(#clip0_6_413)">
<path d="M103.199 89.5566C95.5532 89.5566 91.6066 92.3321 88.1255 94.7797C85.0676 96.9292 82.6524 98.627 77.3978 98.627C72.1442 98.627 69.729 96.9292 66.6721 94.7797C63.191 92.3311 59.2444 89.5566 51.5982 89.5566C43.953 89.5566 40.0064 92.3321 36.5253 94.7797C33.4684 96.9292 31.0532 98.627 25.7996 98.627C20.546 98.627 18.1308 96.9292 15.0739 94.7797C11.5918 92.3321 7.6452 89.5566 0 89.5566V97.1152C5.2546 97.1152 7.66882 98.813 10.7257 100.963C14.2078 103.411 18.1534 106.186 25.7996 106.186C33.4448 106.186 37.3914 103.411 40.8725 100.963C43.9294 98.813 46.3446 97.1152 51.5982 97.1152C56.8528 97.1152 59.2671 98.813 62.3249 100.963C65.806 103.411 69.7526 106.186 77.3978 106.186C85.044 106.186 88.9906 103.411 92.4727 100.963C95.5296 98.814 97.9448 97.1152 103.199 97.1152C108.454 97.1152 110.868 98.813 113.926 100.963C117.407 103.411 121.354 106.186 129 106.186V98.627C123.745 98.627 121.33 96.9292 118.273 94.7797C114.791 92.3321 110.845 89.5566 103.199 89.5566Z" fill="#98A2B3"/>
<path d="M103.199 44.9697C95.5532 44.9697 91.6066 47.7442 88.1255 50.1918C85.0676 52.3413 82.6524 54.04 77.3978 54.04C72.1442 54.04 69.729 52.3413 66.6721 50.1918C63.191 47.7442 59.2444 44.9697 51.5982 44.9697C43.953 44.9697 40.0064 47.7442 36.5253 50.1918C33.4684 52.3413 31.0532 54.04 25.7996 54.04C20.546 54.04 18.1308 52.3413 15.0739 50.1918C11.5918 47.7442 7.6452 44.9697 0 44.9697V52.5283C5.2546 52.5283 7.66882 54.2261 10.7257 56.3755C14.2078 58.8242 18.1534 61.5986 25.7996 61.5986C33.4448 61.5986 37.3914 58.8232 40.8725 56.3755C43.9294 54.2261 46.3446 52.5283 51.5982 52.5283C56.8528 52.5283 59.2671 54.2261 62.3249 56.3755C65.806 58.8242 69.7526 61.5986 77.3978 61.5986C85.044 61.5986 88.9906 58.8232 92.4727 56.3755C95.5296 54.2261 97.9448 52.5283 103.199 52.5283C108.454 52.5283 110.868 54.2261 113.926 56.3755C117.407 58.8242 121.354 61.5986 129 61.5986V54.04C123.745 54.04 121.33 52.3413 118.273 50.1918C114.791 47.7442 110.845 44.9697 103.199 44.9697Z" fill="#98A2B3"/>
<path d="M103.199 67.2637C95.5532 67.2637 91.6066 70.0381 88.1255 72.4858C85.0676 74.6353 82.6524 76.334 77.3978 76.334C72.1442 76.334 69.729 74.6353 66.6721 72.4858C63.191 70.0381 59.2444 67.2637 51.5982 67.2637C43.953 67.2637 40.0064 70.0381 36.5253 72.4858C33.4684 74.6353 31.0532 76.334 25.7996 76.334C20.546 76.334 18.1308 74.6353 15.0739 72.4858C11.5918 70.0381 7.6452 67.2637 0 67.2637V74.8223C5.2546 74.8223 7.66882 76.52 10.7257 78.6695C14.2078 81.1172 18.1534 83.8926 25.7996 83.8926C33.4448 83.8926 37.3914 81.1172 40.8725 78.6695C43.9294 76.52 46.3446 74.8223 51.5982 74.8223C56.8528 74.8223 59.2671 76.52 62.3249 78.6695C65.806 81.1172 69.7526 83.8926 77.3978 83.8926C85.044 83.8926 88.9906 81.1172 92.4727 78.6695C95.5296 76.52 97.9448 74.8223 103.199 74.8223C108.454 74.8223 110.868 76.52 113.926 78.6695C117.407 81.1172 121.354 83.8926 129 83.8926V76.334C123.745 76.334 121.33 74.6353 118.273 72.4858C114.791 70.0381 110.845 67.2637 103.199 67.2637Z" fill="#98A2B3"/>
<path d="M118.273 27.8989C114.791 25.4502 110.845 22.6758 103.199 22.6758C95.5532 22.6758 91.6066 25.4502 88.1255 27.8989C85.0676 30.0484 82.6524 31.7461 77.3978 31.7461C72.1442 31.7461 69.729 30.0484 66.6721 27.8989C63.191 25.4502 59.2444 22.6758 51.5982 22.6758C43.953 22.6758 40.0064 25.4502 36.5253 27.8989C33.4684 30.0484 31.0532 31.7461 25.7996 31.7461C20.546 31.7461 18.1308 30.0484 15.0739 27.8989C11.5918 25.4502 7.6452 22.6758 0 22.6758V30.2344C5.2546 30.2344 7.66882 31.9321 10.7257 34.0816C14.2078 36.5303 18.1534 39.3047 25.7996 39.3047C33.4448 39.3047 37.3914 36.5303 40.8725 34.0816C43.9294 31.9321 46.3446 30.2344 51.5982 30.2344C56.8528 30.2344 59.2671 31.9321 62.3249 34.0816C65.806 36.5303 69.7526 39.3047 77.3978 39.3047C85.044 39.3047 88.9906 36.5303 92.4727 34.0816C95.5296 31.9321 97.9448 30.2344 103.199 30.2344C108.454 30.2344 110.868 31.9321 113.926 34.0816C117.407 36.5303 121.354 39.3047 129 39.3047V31.7461C123.745 31.7461 121.33 30.0484 118.273 27.8989Z" fill="#98A2B3"/>
</g>
<defs>
<clipPath id="clip0_6_413">
<rect width="129" height="129" fill="white"/>
</clipPath>
</defs>
</svg>
